<?xml version="1.0" encoding="UTF-8"?>
<svg id="Calque_1" data-name="Calque 1" xmlns="http://www.w3.org/2000/svg" viewBox="0 0 216.13 216.13">
  <defs>
    <style>
      .cls-1 {
        fill: #3d4998;
      }
    </style>
  </defs>
  <path class="cls-1" d="M150.64,0h30.8c3.58,1.63,4.71,4.44,4.68,8.3-.12,19.83-.08,39.66,0,59.49,0,1.1,.57,2.46,1.34,3.25,7.68,7.83,15.6,15.43,23.17,23.37,10.65,11.17,4.98,29.61-10.08,33.01-2.47,.56-5.09,.48-7.73,.71v2.55c0,20.32-.22,40.65,.07,60.97,.2,14.03-11.08,24.82-24.39,24.47-12.93-.33-25.88-.07-38.82-.07-5.38,0-7.73-2.32-7.73-7.64,0-14.63,0-29.25,0-43.88v-2.44h-27.89c0,1,0,1.84,0,2.68,0,14.77,0,29.54,0,44.3,0,4.36-2.6,6.97-6.92,6.97-13.57,0-27.14,0-40.72,0-1.12,0-2.26-.03-3.35-.23-12.29-2.29-19.86-11.43-19.87-23.98,0-20.46,0-40.93,0-61.39,0-.82,0-1.64,0-2.38-.39-.11-.52-.19-.65-.18-.56,0-1.12,.03-1.68,.06-6.72,.29-12.38-2.12-16.4-7.42C2.48,117.86,1.46,114.46,0,111.4c0-2.25,0-4.5,0-6.75,1.41-6.43,5.8-10.8,10.25-15.24C36.74,63.03,63.18,36.59,89.56,10.1c4.39-4.41,8.73-8.72,15.09-10.1h6.75c6.16,1.4,10.55,5.39,14.78,9.78,5.89,6.12,11.98,12.04,17.98,18.04,.52,.52,1.08,.99,1.98,1.82v-2.5c0-6.17,.14-12.35-.05-18.52-.12-3.87,1.02-6.8,4.55-8.61Zm-15.94,203.39c1.04,0,1.8,0,2.56,0,10.2,0,20.39,0,30.59,0,8.1,0,12.3-4.22,12.3-12.37,0-22.78-.02-45.57,.04-68.35,0-1.7-.52-2.84-1.7-4.02-22.95-22.89-45.87-45.82-68.76-68.76-.53-.53-.74-1.37-1.1-2.07-.94,.83-1.17,.99-1.36,1.19-23.47,23.47-46.95,46.93-70.38,70.44-.63,.63-.95,1.84-.96,2.78-.05,23.14-.05,46.27-.04,69.41,0,7.37,4.42,11.75,11.85,11.75,10.41,0,20.82,0,31.22,0,.74,0,1.48,0,2.37,0,0-1.15,0-1.99,0-2.82,0-14.56,0-29.11,0-43.67,0-5.48,2.37-7.86,7.79-7.86,12.59,0,25.18,0,37.76,0,5.46,0,7.8,2.35,7.8,7.84,0,14.56,0,29.11,0,43.67v2.84ZM19.89,115.24c2.53,.04,4.35-1.27,6.05-2.97,25.49-25.52,51-51.02,76.51-76.52,4-4,7.16-3.99,11.2,.05,25.36,25.36,50.71,50.71,76.07,76.07,.55,.55,1.07,1.12,1.66,1.62,4.18,3.52,10.3,1.56,11.7-3.73,.9-3.4-.75-5.76-2.99-8.01-28.65-28.62-57.28-57.27-85.92-85.9-4.28-4.28-8.02-4.25-12.33,.06-28.59,28.59-57.18,57.17-85.76,85.76-.6,.6-1.22,1.18-1.73,1.84-1.85,2.38-2.22,4.97-.86,7.69,1.31,2.61,3.49,3.93,6.41,4.04ZM159.02,12.75c0,9.77-.02,19.33,.05,28.88,0,.72,.53,1.57,1.07,2.12,3.69,3.77,7.44,7.48,11.17,11.2,.56,.56,1.15,1.11,1.94,1.87V12.75h-14.22Z"/>
</svg>