<?xml version="1.0" encoding="UTF-8"?>
<svg id="Calque_1" data-name="Calque 1" xmlns="http://www.w3.org/2000/svg" viewBox="0 0 1125.34 1173.18">
  <defs>
    <style>
      .cls-1 {
        fill: gray;
      }
    </style>
  </defs>
  <path class="cls-1" d="M991.61,1173.18h-295.74c-.07-2.35-.19-4.7-.19-7.05,0-86.43,0-172.86,0-259.3v-6.7c-7.62-1.22-230.36-.89-234.52,.34v6.9c0,86.25,0,172.5,0,258.75,0,2.35-.09,4.71-.14,7.06H142.43c.09-2.53,.25-5.06,.25-7.59,.01-171.06,.02-342.13-.06-513.19,0-4.12,1.12-7.01,4.2-9.87,34.68-32.16,69.22-64.47,103.8-96.74,97.37-90.87,194.73-181.76,292.12-272.61,12.96-12.09,28.79-12.1,41.87-.15,10.03,9.17,20.03,18.38,30.03,27.57,123.7,113.65,247.38,227.31,371.19,340.85,4.01,3.68,5.38,7.35,5.38,12.63-.12,170.52-.1,341.04-.08,511.56,0,2.51,.31,5.03,.47,7.54ZM472.84,766.29c1.21-6.25,.96-129.3-.2-133.21H251.73c-1.14,6.68-.86,129.17,.3,133.21h220.81Zm355.84-133.12h-221.76v132.67c6.51,1.08,217.74,.85,221.76-.22v-132.45Z"/>
  <path class="cls-1" d="M554.52,0c6.52,0,13.05,0,19.57,0,1.54,.38,3.07,.84,4.63,1.13,6.93,1.3,13.97,2.18,20.8,3.88,24.47,6.1,45.08,18.95,63.73,35.75,109.01,98.21,218.21,196.21,327.34,294.28,36.51,32.81,73.01,65.64,109.54,98.43,11.5,10.32,19.41,22.82,23.38,37.77,.63,2.38,1.22,4.78,1.83,7.17v25.01c-.3,.63-.79,1.24-.88,1.91-1.71,13.37-7.64,24.84-16.11,35.04-6.71,8.08-13.59,16.04-20.73,23.74-14.37,15.5-32.21,23.71-53.41,24.16-20.17,.43-37.48-6.67-52.42-20.11-101.73-91.46-203.49-182.88-305.24-274.31-20.89-18.77-41.74-37.58-62.69-56.29-13.62-12.16-29.59-18.66-47.91-19.09-20.16-.46-37.55,6.45-52.51,19.87-57.46,51.53-114.95,103.03-172.43,154.55-65.17,58.41-130.32,116.84-195.51,175.22-33.04,29.6-79.14,26.77-108.4-6.58-5.85-6.67-11.69-13.36-17.47-20.1-9.42-10.99-15.31-23.62-17.64-37.93-.31-1.9-1.31-3.68-1.99-5.52,0-4.71,0-9.42,0-14.13,.68-1.61,1.7-3.16,1.98-4.83,3-18.01,11.29-33.08,24.84-45.27,11.17-10.05,22.38-20.07,33.58-30.1,114.63-102.73,229.26-205.46,343.89-308.2,21.98-19.7,43.91-39.46,65.97-59.07,21.27-18.91,46.02-30.46,74.24-34.5,3.36-.48,6.68-1.24,10.02-1.88Z"/>
</svg>