<?xml version="1.0" encoding="utf-8"?>
<!-- Generator: Adobe Illustrator 26.5.0, SVG Export Plug-In . SVG Version: 6.00 Build 0)  -->
<svg version="1.1" id="Calque_1" xmlns="http://www.w3.org/2000/svg" xmlns:xlink="http://www.w3.org/1999/xlink" x="0px" y="0px"
	 viewBox="0 0 252.92 253.18" style="enable-background:new 0 0 252.92 253.18;" xml:space="preserve">
<style type="text/css">
	.st0{fill:#818282;}
</style>
<g>
	<path class="st0" d="M239.14,125.83c0,17.67-0.09,35.34,0.04,53.01c0.06,7.79-2.9,13.19-9.91,17.18
		c-31.96,18.18-63.74,36.67-95.53,55.14c-5.73,3.33-11.15,3.28-16.84,0.01c-31.39-18.07-62.78-36.13-94.25-54.04
		c-6.12-3.48-9.07-8.18-9-15.31c0.35-36.63,0.53-73.26,0.71-109.9c0.03-6.27,2.22-11.07,7.86-14.31
		c32.05-18.4,64.1-36.82,96.04-55.42c6.38-3.71,12.15-3.44,18.34,0.15c31.16,18.09,62.34,36.17,93.63,54.04
		c6.4,3.66,9.13,8.61,9.05,15.87c-0.2,17.85-0.07,35.71-0.07,53.57C239.19,125.83,239.17,125.83,239.14,125.83z M127.43,86.76
		c-13.98,12.66-27.5,24.84-40.89,37.15c-1.05,0.96-1.69,2.89-1.71,4.38c-0.13,15.05-0.05,30.11-0.11,45.16
		c-0.02,4.46,2.19,6.46,6.5,6.45c6.5,0,13.02-0.18,19.51,0.06c4.34,0.16,5.96-1.39,5.76-5.81c-0.31-6.79-0.08-13.6-0.08-20.34
		c7.56,0,14.34,0,21.48,0c0,6.85,0.2,13.34-0.07,19.82c-0.21,4.92,1.76,6.6,6.58,6.35c5.93-0.32,11.89-0.15,17.84-0.03
		c5.08,0.11,7.53-2.01,7.49-7.28c-0.12-14.49,0.03-28.99-0.14-43.49c-0.02-1.83-0.72-4.21-1.99-5.39
		C154.47,111.48,141.16,99.36,127.43,86.76z M127.17,81.23c1.4,1.1,2.62,1.94,3.7,2.93c14.1,12.94,28.15,25.92,42.27,38.83
		c5,4.57,9.57,4.71,13.15,0.64c3.64-4.14,3-8.85-1.71-13.15c-16.59-15.16-33.17-30.33-49.73-45.52c-5.71-5.24-9.07-5.23-14.85,0.03
		c-9.75,8.87-19.58,17.66-29.33,26.54c-7.42,6.75-14.83,13.52-22.12,20.4c-3.21,3.03-3.38,8.45-0.68,11.61
		c3.04,3.57,7.38,4.04,11.41,1.14c1.5-1.08,2.9-2.31,4.27-3.56C97.96,107.97,112.34,94.8,127.17,81.23z"/>
	<path class="st0" d="M109.03,138.82c-0.37,0-0.74,0.01-1.11,0c-13.43-0.29-11.31,2.27-11.65-11.79c-0.09-3.6,1.09-4.98,4.74-4.83
		c5.54,0.22,11.09,0.14,16.63,0.03c3.08-0.07,4.37,1.14,4.19,4.26C121.05,140.65,124.89,138.62,109.03,138.82z"/>
	<path class="st0" d="M157.83,122.31c0,4.88,0.24,9.1-0.16,13.26c-0.11,1.17-2.08,3.02-3.27,3.08c-6.08,0.31-12.19,0.25-18.28,0.03
		c-1.1-0.04-3.02-1.35-3.09-2.19c-0.33-4.03-0.29-8.12-0.02-12.16c0.05-0.73,1.76-1.91,2.73-1.93
		C142.89,122.23,150.04,122.31,157.83,122.31z"/>
</g>
</svg>
