<?xml version="1.0" encoding="UTF-8"?>
<svg id="Calque_1" data-name="Calque 1" xmlns="http://www.w3.org/2000/svg" viewBox="0 0 184.97 199.55">
  <defs>
    <style>
      .cls-1 {
        fill: #3d4998;
      }
    </style>
  </defs>
  <path class="cls-1" d="M49.81,122.64c10.54-2.06,20.06-3.98,29.61-5.78,5.47-1.03,10.94-2.5,16.45-2.69,12.31-.41,24.64-.12,36.97-.17,5.83-.03,9.43-2.97,9.29-7.4-.14-4.33-3.49-6.98-9.14-7.02-8.93-.06-17.85-.02-27.5-.02,3.18-5.24,5.99-9.66,8.57-14.2,1.23-2.16,2.6-4.47,2.91-6.85,.81-6.16,4.12-7.6,9.92-7.28,9.13,.49,18.31,.06,27.47,.12,6.89,.04,9.01,2.1,9.02,8.93,.05,38.14,0,76.27,.11,114.41,.01,3.69-1.11,4.89-4.85,4.87-34.81-.12-69.61-.08-104.42-.07-2.45,0-4.52,.2-4.5-3.47,.14-24.48,.09-48.96,.12-73.44,0-.31,.21-.62-.04,.07Zm57.21,5.47v-.03c-9.32,0-18.65-.14-27.96,.06-5.39,.12-8.64,3.63-7.87,8.08,.85,4.88,4.46,6.3,8.82,6.31,17.81,.05,35.62,.06,53.44,0,5.22-.02,8.53-2.81,8.68-6.98,.16-4.48-3.05-7.36-8.63-7.42-8.82-.1-17.64-.03-26.47-.03Zm-.4,42.78c8.81,0,17.62,.04,26.43-.02,5.76-.04,8.98-2.62,9.03-7.04,.04-4.56-3.03-7.22-8.8-7.25-17.79-.07-35.57-.07-53.36,0-5.62,.02-8.93,2.9-8.86,7.26,.08,4.29,3.51,6.99,9.13,7.02,8.81,.05,17.62,.01,26.43,.01Z"/>
  <path class="cls-1" d="M32.69,21.96c5,9.02,2.29,13.61-7.57,13.63-3.17,0-6.33,.05-9.5,0-5.77-.1-8.31-2.45-8.51-8.09-.14-4.16,.02-8.33-.02-12.49-.03-3.53,1.28-6.18,4.77-7.34,3.46-1.15,6.2,0,8.2,2.97,.38,.56,.56,1.25,.89,2.03C30.24,5.94,39.54,1.8,50.01,.45c32.62-4.18,62.5,21.28,63.53,54.2,.97,31.01-22.41,57.27-52.49,58.97C29.05,115.43,2.7,92.7,.11,61.05c-.05-.66-.09-1.33-.1-2-.15-5.53,2.1-8.64,6.46-8.95,4.85-.34,7.37,2.32,7.71,8.22,.68,12.22,5.36,22.49,14.62,30.66,16.06,14.17,40.38,14.23,56.16,.02,16.52-14.88,19.4-38.8,6.8-56.54-12.67-17.84-36.13-23.44-55.02-13.09-1.41,.77-2.72,1.73-4.05,2.59Z"/>
  <path class="cls-1" d="M184.59,199.46c-3.89,0-7.53,.19-11.12-.12-.98-.08-2.21-1.49-2.65-2.57-.47-1.15-.14-2.62-.15-3.95,0-39.3,0-78.6-.01-117.9,0-9.02-1.85-10.92-10.8-10.96-12.81-.05-25.61-.01-38.78-.01v-13.47c1.05-.14,2.28-.46,3.52-.46,17.15-.03,34.3-.05,51.46,0,6.35,.02,8.88,2.47,8.89,8.69,.04,46.13,.03,92.25,.02,138.38,0,.49-.15,.97-.38,2.37Z"/>
  <path class="cls-1" d="M49.81,50.02c0-4.73-.07-8.84,.02-12.95,.12-5.35,2.8-8.48,7.08-8.48,4.2,0,6.84,3.21,6.89,8.59,.06,6.16,.06,12.31-.01,18.47-.07,5.85-2.39,8.23-8.09,8.28-6.49,.06-12.98,.07-19.46-.01-4.64-.06-7.6-2.74-7.68-6.72-.09-4.41,2.69-7.07,7.66-7.17,4.29-.08,8.58-.02,13.6-.02Z"/>
</svg>