<?xml version="1.0" encoding="UTF-8"?>
<svg id="Calque_1" data-name="Calque 1" xmlns="http://www.w3.org/2000/svg" viewBox="0 0 315.6 359.78">
  <defs>
    <style>
      .cls-1 {
        fill: #fdfdfd;
      }
    </style>
  </defs>
  <path class="cls-1" d="M123.67,30.88V227.35c0,10.21-12.94,14.61-19.17,6.52l-49.15-63.88c-11.36-14.77-33.13-16.18-46.31-3h0c-11.33,11.33-12.11,29.43-1.81,41.69l117.67,140.08c11.48,13.67,32.12,14.78,45.01,2.43l136.18-130.51c11.18-10.72,12.7-28.06,3.54-40.55l-2.16-2.95c-11.75-16.02-35.35-16.94-48.3-1.88l-52.47,60.98c-6.59,7.66-19.16,2.93-19.06-7.18l1.95-197.93c.17-17.17-13.7-31.18-30.88-31.18h-4.15c-17.05,0-30.88,13.82-30.88,30.88Z"/>
</svg>