<?xml version="1.0" encoding="utf-8"?>
<!-- Generator: Adobe Illustrator 26.5.0, SVG Export Plug-In . SVG Version: 6.00 Build 0)  -->
<svg version="1.1" id="Calque_1" xmlns="http://www.w3.org/2000/svg" xmlns:xlink="http://www.w3.org/1999/xlink" x="0px" y="0px"
	 viewBox="0 0 222 235" style="enable-background:new 0 0 222 235;" xml:space="preserve">
<style type="text/css">
	.st0{fill:#009245;}
</style>
<g>
	<path class="st0" d="M96.33,146.79c0-1.56,0-3.11,0-4.67c0-23.49-0.01-46.98,0.01-70.46c0-2.12,0-4.26,0.29-6.35
		c0.79-5.74,5.38-9.55,11-9.29c5.58,0.26,10.02,4.5,10.08,10.29c0.16,15.66,0.09,31.32,0.1,46.97c0.01,10.35,0,20.7,0,31.05
		c0,0.87,0,1.74,0,3.75c3.28-3.16,5.82-5.54,8.29-8c5.26-5.23,10.43-10.55,15.72-15.75c5.03-4.94,11.38-5.15,15.9-0.69
		c4.36,4.3,4.12,11-0.81,15.95c-13.84,13.93-27.72,27.81-41.66,41.64c-4.82,4.78-11.1,5.07-15.61,0.6
		c-14.33-14.17-28.57-28.43-42.77-42.74c-3.93-3.96-4.51-9.29-1.88-13.48c2.68-4.26,7.51-6.18,12.42-4.53
		c1.79,0.6,3.5,1.87,4.88,3.21c6.65,6.47,13.19,13.05,19.73,19.64c1.1,1.11,1.95,2.46,2.91,3.7
		C95.4,147.35,95.86,147.07,96.33,146.79z"/>
</g>
</svg>
