<?xml version="1.0" encoding="UTF-8"?>
<svg id="Calque_1" data-name="Calque 1" xmlns="http://www.w3.org/2000/svg" viewBox="0 0 1125 1104.9">
  <defs>
    <style>
      .cls-1 {
        fill: #fff;
      }
    </style>
  </defs>
  <path class="cls-1" d="M164.44,181.22C185.31,93.06,236.11,32.58,322.38,9.08c97.37-26.52,177.3,6.09,240.35,84.31C621.48,19.63,697.08-14.19,790.27,6.17c92.8,20.27,147.46,81.87,170.71,175.03h36.24c76.45,.07,127.57,51.05,127.66,127.37,.04,36.4,.29,72.82-.07,109.22-.52,52.71-24.3,91.19-72.19,113.63-8.24,3.85-8.13,8.98-8.11,15.75,.04,145.62,.13,291.24,0,436.87-.07,57.46-34.36,103.06-87.99,116.73-10.8,2.76-22.29,3.92-33.47,3.94-240.19,.22-480.39,.25-720.58,.11-71.28-.04-121.63-50.53-121.7-121.83-.11-145.2-.09-290.41,.11-435.61,0-8.38-1.79-12.9-10.24-16.98C25.44,508.64,1.81,471.86,.58,421.82c-.99-39.74-.49-79.5-.13-119.26,.63-68.36,52.75-120.47,121.07-121.32,14.18-.18,28.36-.02,42.96-.02h-.04Zm-3.74,361.67v439.08c0,28.83,14.2,42.9,43.25,42.92,102.05,.04,204.09,0,306.14,0h11.6v-481.98H160.69v-.02Zm442.78,0v481.98h316.85c30.51,0,44.19-13.8,44.22-44.51v-437.47h-361.06Zm-81.33-281.23c-3.38-.2-5.44-.45-7.5-.45-130.95,0-261.9-.09-392.85,.04-24.73,.02-41.28,17.14-41.42,42.22-.18,37.23-.07,74.46-.04,111.71,0,31.63,15.39,47.2,46.68,47.22h395.11v-200.77l.02,.02Zm80.93,200.34c3.81,.18,6.27,.43,8.74,.43,130.1,0,260.2,.07,390.32-.02,26.28,0,42.65-16.84,42.74-43.55,.13-36.8,.07-73.63,.02-110.43-.02-31.65-15.37-47.2-46.68-47.2h-395.16v200.79l.02-.02Zm7.53-281.77h267.43c-15.32-61.69-76.97-103.51-145.71-99.7-56.07,3.11-115.49,51.61-121.7,99.7h-.02Zm-362.88,.34h266.78c-7.73-53.27-70.29-100.17-132.97-100.24-63.26-.07-125.78,46.68-133.82,100.24Z"/>
</svg>