<?xml version="1.0" encoding="UTF-8"?>
<svg id="Calque_1" data-name="Calque 1" xmlns="http://www.w3.org/2000/svg" viewBox="0 0 582.56 456.99">
  <defs>
    <style>
      .cls-1 {
        fill: #f2f2f2;
      }
    </style>
  </defs>
  <path class="cls-1" d="M328.29,456.76H103.66c-19.23,0-28.61-9.47-28.62-28.87,0-84.12,.22-168.24-.19-252.36-.08-16.46,10.07-29.23,29.37-29.18,149.75,.42,299.51,.23,449.27,.23,19.42,0,28.85,9.33,28.85,28.58,0,84.33-.23,168.65,.22,252.98,.08,15.67-9.69,28.99-29.01,28.85-75.08-.56-150.17-.23-225.25-.23h0Zm-201.03-97.02h402.7v-18.93H127.26v18.93h0Zm65.17-119.51c0-7.4,.13-14.81-.04-22.2-.16-6.7-3.64-10.51-10.24-10.61-14.6-.22-29.2-.21-43.8,0-6.88,.1-10.44,3.98-10.49,11-.11,14.39-.12,28.78,0,43.17,.06,6.63,3.63,10.5,10.25,10.61,14.6,.24,29.2,.23,43.8,.01,6.95-.1,10.34-3.89,10.49-11.01,.14-6.99,.03-13.98,.02-20.97h.01Zm249.03,163.43h88.6v-18.85h-88.6v18.85Z"/>
  <path class="cls-1" d="M507.02,53.05C338.93,72,171.35,90.88,2.63,109.9,1.65,97.85-.38,86.24,.06,74.73c.49-12.71,11.09-22.87,23.96-24.44,32.03-3.9,64.11-7.38,96.17-11.02,42.07-4.77,84.14-9.55,126.21-14.29,42.28-4.75,84.57-9.43,126.84-14.18,30.64-3.44,61.25-7.1,91.92-10.32,6.22-.65,12.87-.83,18.86,.66,10.14,2.51,16.78,9.91,18.87,20.04,2.1,10.19,2.74,20.68,4.13,31.87h0Z"/>
  <path class="cls-1" d="M509.11,72.71c1.44,12.77,2.79,24.75,4.19,37.27-13.58,1.57-26.61,3.1-39.64,4.57-34.53,3.89-69.06,7.77-103.6,11.6-3.46,.38-6.96,.65-10.45,.65-85.19,.04-170.38,.03-255.57,.03-24.2,0-37.41,8.99-46.78,31.62-.53,1.27-1.87,2.55-3.14,3.08-1.66,.69-3.62,.69-5.45,.89-12.84,1.41-25.69,2.8-39.3,4.27-1.42-12.39-2.78-24.34-4.25-37.2,168.04-18.93,335.67-37.82,503.98-56.78h.01Z"/>
  <path class="cls-1" d="M11.62,186.48c14.93-1.67,28.94-3.23,43.32-4.84v175.95c-12.72,1.11-25.18-9.88-26.83-24.2-5.14-44.68-10.06-89.39-15.06-134.09-.45-4.05-.9-8.11-1.43-12.82h0Z"/>
  <path class="cls-1" d="M147.88,252.15v-24.7h24.36v24.7h-24.36Z"/>
</svg>