<?xml version="1.0" encoding="UTF-8"?>
<svg id="Calque_1" data-name="Calque 1" xmlns="http://www.w3.org/2000/svg" viewBox="0 0 688.1 539.8">
  <defs>
    <style>
      .cls-1 {
        fill: #355ad0;
      }
    </style>
  </defs>
  <path class="cls-1" d="M387.78,539.53H122.44c-22.71,0-33.8-11.19-33.8-34.1,0-99.36,.26-198.73-.23-298.09-.1-19.44,11.9-34.53,34.69-34.47,176.89,.49,353.78,.27,530.67,.27,22.94,0,34.08,11.03,34.08,33.76,0,99.61-.28,199.21,.25,298.82,.1,18.51-11.45,34.25-34.27,34.08-88.68-.66-177.37-.27-266.06-.27h.01Zm-237.45-114.6h475.66v-22.36H150.33v22.36h0Zm76.98-141.17c0-8.74,.16-17.49-.05-26.23-.18-7.91-4.3-12.41-12.09-12.53-17.24-.26-34.49-.25-51.73-.01-8.12,.11-12.33,4.7-12.39,12.99-.13,17-.14,34,.01,51,.07,7.83,4.29,12.4,12.1,12.53,17.24,.29,34.49,.28,51.73,.02,8.2-.12,12.22-4.6,12.39-13,.17-8.25,.04-16.51,.03-24.77h0Zm294.15,193.04h104.65v-22.26h-104.65v22.26Z"/>
  <path class="cls-1" d="M598.9,62.67C400.35,85.05,202.41,107.36,3.11,129.82,1.95,115.58-.45,101.87,.08,88.28c.58-15.02,13.1-27.02,28.3-28.87,37.83-4.61,75.73-8.72,113.6-13.02,49.69-5.64,99.38-11.29,149.08-16.88,49.94-5.62,99.89-11.14,149.83-16.75,36.19-4.07,72.35-8.39,108.57-12.19,7.35-.77,15.2-.98,22.27,.78,11.97,2.97,19.82,11.71,22.28,23.67,2.48,12.04,3.24,24.42,4.88,37.64h0Z"/>
  <path class="cls-1" d="M601.37,85.89c1.7,15.09,3.29,29.24,4.95,44.02-16.04,1.85-31.43,3.66-46.83,5.4-40.79,4.59-81.57,9.17-122.37,13.7-4.09,.45-8.23,.77-12.34,.77-100.62,.04-201.25,.03-301.87,.03-28.58,0-44.19,10.62-55.25,37.35-.62,1.5-2.21,3.01-3.71,3.64-1.96,.82-4.27,.82-6.44,1.05-15.17,1.67-30.34,3.3-46.42,5.05-1.67-14.63-3.29-28.75-5.02-43.94,198.49-22.36,396.5-44.67,595.29-67.06h.01Z"/>
  <path class="cls-1" d="M13.73,220.28c17.63-1.97,34.18-3.82,51.17-5.71v207.83c-15.03,1.31-29.75-11.67-31.69-28.58-6.07-52.78-11.88-105.59-17.79-158.39-.54-4.79-1.07-9.57-1.69-15.15h0Z"/>
  <path class="cls-1" d="M174.69,297.84v-29.17h28.77v29.17h-28.77Z"/>
</svg>