<?xml version="1.0" encoding="UTF-8"?>
<svg id="Calque_1" data-name="Calque 1" xmlns="http://www.w3.org/2000/svg" viewBox="0 0 482.34 482.43">
  <defs>
    <style>
      .cls-1 {
        fill: #fff;
      }
    </style>
  </defs>
  <path class="cls-1" d="M430.34,430.48H52.1v-60.07c2.93,0,5.92,.09,8.9-.02,13.82-.5,24.79-11.38,25.08-25.24,.24-11.48,.16-22.97,.04-34.45-.15-15.36-11.21-26.23-26.66-26.41-2.32-.03-4.64,0-7.36,0v-86.17c2.93,0,5.91,.09,8.89-.02,13.82-.5,24.79-11.38,25.09-25.23,.25-11.48,.16-22.97,.04-34.45-.15-15.36-11.21-26.24-26.66-26.41-2.32-.03-4.64,0-7.36,0V52.05H430.35V430.48h-.01Zm-189.36-77.28c62.12-.11,112.14-50.21,112.15-112.32,0-62.06-50.58-111.55-114.04-111.56-59.37-.01-109.85,50.55-109.79,109.96,.07,63.43,49.68,114.04,111.69,113.93h-.01Z"/>
  <path class="cls-1" d="M34.47,111.72H.02v-21.65c0-15.25-.06-30.51,.01-45.76C.15,18.72,18.64,.05,44.16,.04,175.49-.01,306.83-.01,438.16,.04c25.29,.01,44.04,18.59,44.11,43.74,.13,44.33,.04,88.65,.04,132.98v3.89h-34.45V46.88c0-9.88-2.51-12.38-12.39-12.38H46.85c-9.89,0-12.38,2.49-12.38,12.38V111.72Z"/>
  <path class="cls-1" d="M.02,370.69H34.47v5.66c0,20.1-.02,40.2,0,60.3,0,8.43,2.87,11.3,11.31,11.3,130.25,.01,260.51,.01,390.76,0,8.43,0,11.31-2.88,11.31-11.31,.02-42.71,0-85.42,0-128.13v-6.67h34.45v5.45c0,43.25,.03,86.5-.01,129.74-.03,26.98-18.33,45.36-45.22,45.37-130.61,.03-261.22,.03-391.84,0C18.35,482.4,.06,463.99,.01,437.03-.02,416.75,.01,396.47,.01,376.2v-5.5h0Z"/>
  <path class="cls-1" d="M.36,129.24c20.17,0,39.86-.08,59.55,.05,5.63,.04,8.89,3.47,8.96,9.22,.13,11.1,.14,22.21,0,33.32-.07,5.24-3.16,8.91-8.09,8.95-20.02,.19-40.05,.08-60.42,.08v-51.62h0Z"/>
  <path class="cls-1" d="M.23,353.18v-51.67H7.08c17.01,0,34.03-.03,51.04,.01,7.72,.02,10.75,3.03,10.78,10.71,.05,10.39,.08,20.78-.02,31.17-.06,6.18-3.17,9.7-9.01,9.74-19.69,.13-39.37,.05-59.65,.05h0Z"/>
  <path class="cls-1" d="M.43,198.35H34.15v85.66H.43v-85.66H.43Z"/>
  <path class="cls-1" d="M448.05,283.86v-85.37h33.98v85.37h-33.98Z"/>
  <path class="cls-1" d="M335.34,232.61c-5.72,0-10.73-.1-15.73,.03-5.5,.13-9.24,3.56-9.38,8.35-.15,4.97,3.73,8.63,9.47,8.83,2.51,.09,5.02,.02,7.54,.02h8.05c-1.68,19.74-8.92,36.61-21.68,52.38-3.28-3.54-6.22-6.87-9.34-10.02-5.41-5.47-10.47-6.14-14.4-2.06-3.8,3.93-3.13,8.86,2.1,14.02,3.19,3.14,6.57,6.09,10.23,9.47-15.64,12.83-32.56,20-52.42,21.77,0-5.39,.07-10.37-.02-15.36-.1-6-3.35-9.73-8.4-9.85-5.23-.13-8.69,3.75-8.79,9.99-.07,4.82-.01,9.65-.01,15.18-19.67-1.62-36.47-8.94-52.12-21.41,3.78-3.7,7.38-7.09,10.81-10.63,4.44-4.58,4.8-9.6,1.12-13.28-3.68-3.68-8.73-3.33-13.26,1.14-3.44,3.4-6.68,7-10.4,10.94-12.75-15.45-19.86-32.39-21.72-52.27,5.3,0,10.27,.07,15.25-.02,5.89-.1,9.75-3.47,9.87-8.43,.12-5.16-3.87-8.67-10.07-8.76-4.81-.07-9.63-.01-14.99-.01,1.65-19.79,8.97-36.64,21.71-52.45,3.83,4.11,7.22,8.01,10.9,11.63,4.06,3.99,8.88,4.21,12.45,.91,3.75-3.47,3.82-8.66-.22-12.87-3.59-3.75-7.52-7.16-11.67-11.07,15.6-12.7,32.49-19.94,52.35-21.72,0,5.39-.07,10.38,.02,15.36,.1,5.96,3.37,9.73,8.39,9.86,5.21,.13,8.7-3.77,8.8-10,.08-4.82,.02-9.65,.02-15.16,19.69,1.57,36.5,8.86,52.15,21.46-3.78,3.68-7.39,7.06-10.84,10.59-4.45,4.54-4.81,9.53-1.13,13.27,3.66,3.72,8.63,3.33,13.24-1.08,1.81-1.74,3.61-3.5,5.32-5.33,1.59-1.7,3.06-3.52,5-5.78,12.86,15.55,19.95,32.48,21.82,52.38l-.02-.02Zm-94.09-34.43c-24.22-.06-42.86,18.7-42.82,43.08,.04,24.21,18.33,42.77,42.37,43,24.17,.23,42.89-18.37,43.08-42.82,.19-24.35-18.39-43.2-42.63-43.26Z"/>
  <path class="cls-1" d="M266.75,241.46c-.19,14.09-11.94,25.71-25.84,25.58-13.88-.14-25.52-12.12-25.34-26.08,.18-14.07,11.93-25.69,25.84-25.56,13.91,.13,25.53,12.08,25.34,26.06Z"/>
</svg>