<?xml version="1.0" encoding="UTF-8" ?>
<!DOCTYPE svg PUBLIC "-//W3C//DTD SVG 1.1//EN" "http://www.w3.org/Graphics/SVG/1.1/DTD/svg11.dtd">
<svg width="400pt" height="400pt" viewBox="0 0 400 400" version="1.1" xmlns="http://www.w3.org/2000/svg">
<g id="#fdfefdff">
</g>
<g id="#1489c6ff">
<path fill="#1489c6" opacity="1.00" d=" M 257.34 48.56 C 258.75 48.41 261.55 48.11 262.96 47.96 C 263.00 79.30 263.08 110.63 262.93 141.96 C 232.90 142.08 202.93 139.46 172.94 137.88 C 174.62 132.73 179.98 129.47 182.96 124.97 C 183.77 121.52 188.65 121.28 189.07 117.96 C 183.96 119.93 181.79 125.46 177.03 128.03 C 174.09 129.26 172.75 133.73 169.05 133.06 C 169.04 108.76 168.83 84.45 169.13 60.17 C 172.99 57.17 178.51 58.59 183.01 57.86 C 207.81 54.94 232.57 51.67 257.34 48.56 Z" />
<path fill="#1489c6" opacity="1.00" d=" M 65.06 49.00 C 73.36 48.54 81.50 50.57 89.71 51.32 C 110.75 53.96 131.78 56.57 152.82 59.13 C 155.49 80.27 153.25 101.74 154.03 123.00 C 152.92 125.94 155.45 130.41 152.85 132.96 C 146.65 129.48 141.71 124.25 136.77 119.23 C 136.30 119.17 135.37 119.05 134.90 118.99 C 139.63 125.47 146.63 130.68 150.11 137.86 C 121.77 139.73 93.37 141.03 65.03 141.94 C 65.00 110.96 64.93 79.98 65.06 49.00 Z" />
<path fill="#1489c6" opacity="1.00" d=" M 143.06 299.96 C 146.35 300.22 150.78 301.75 151.67 305.31 C 152.40 320.52 151.88 335.78 151.96 351.01 C 148.58 351.68 144.23 350.33 143.30 346.70 C 142.67 331.14 143.07 315.53 143.06 299.96 Z" />
<path fill="#1489c6" opacity="1.00" d=" M 65.99 302.04 C 81.99 302.01 98.00 301.89 114.00 302.07 C 114.68 305.42 113.32 309.78 109.70 310.70 C 106.04 310.79 98.71 310.98 95.04 311.07 C 94.86 324.38 95.14 337.70 94.95 351.02 C 90.28 353.05 86.94 349.30 85.28 345.71 C 84.60 334.17 85.24 322.60 84.96 311.06 C 81.29 311.00 73.93 310.87 70.26 310.81 C 67.71 308.63 65.32 305.62 65.99 302.04 Z" />
<path fill="#1489c6" opacity="1.00" d=" M 115.33 314.40 C 122.78 312.48 130.39 314.89 135.82 320.16 C 137.84 324.82 140.86 330.32 139.34 335.32 C 129.98 336.91 119.76 335.54 110.03 336.04 C 111.24 338.10 111.55 340.98 114.02 342.00 C 120.92 348.17 130.20 337.89 136.96 344.13 C 128.53 358.98 99.70 352.52 101.96 334.02 C 100.23 325.29 106.89 316.30 115.33 314.40 M 119.29 321.33 C 115.66 322.18 112.07 324.11 110.98 327.95 C 117.35 328.14 123.72 327.99 130.10 327.94 C 129.20 323.69 123.44 320.37 119.29 321.33 Z" />
<path fill="#1489c6" opacity="1.00" d=" M 169.34 314.49 C 177.44 312.64 186.90 315.41 191.22 322.76 C 193.28 326.82 194.20 331.40 194.02 335.96 C 184.33 336.19 174.64 335.77 164.96 336.07 C 165.01 338.30 165.56 341.20 168.02 342.00 C 174.92 348.17 184.20 337.89 190.96 344.13 C 188.02 349.28 182.00 352.43 176.00 352.01 C 166.85 353.61 158.31 346.57 155.86 338.09 C 152.84 330.13 157.61 321.67 163.72 316.72 C 165.01 314.85 167.33 314.91 169.34 314.49 M 173.29 321.33 C 169.66 322.18 166.07 324.11 164.98 327.95 C 171.35 328.14 177.71 327.99 184.08 327.94 C 183.33 323.60 177.57 320.34 173.29 321.33 Z" />
<path fill="#1489c6" opacity="1.00" d=" M 213.34 314.45 C 219.27 313.69 226.18 313.89 230.99 318.00 C 233.65 318.77 234.61 320.36 233.84 322.74 C 231.16 323.87 228.58 325.82 225.39 324.61 C 221.05 321.13 214.90 321.62 210.26 324.27 C 207.34 327.67 204.60 332.53 207.09 336.94 C 207.96 340.84 212.07 342.84 215.70 343.47 C 221.02 344.86 226.57 338.67 231.70 342.31 C 233.65 342.96 232.95 345.24 232.88 346.80 C 226.43 352.30 216.99 353.74 209.06 350.92 C 198.95 346.79 193.91 333.19 199.67 323.69 C 202.26 318.44 207.69 315.31 213.34 314.45 Z" />
<path fill="#1489c6" opacity="1.00" d=" M 250.33 314.40 C 259.74 312.17 270.23 317.20 273.70 326.31 C 273.87 331.14 274.93 336.33 272.92 340.94 C 269.48 349.78 259.31 354.10 250.27 351.67 C 240.17 349.05 233.58 336.98 237.23 327.14 C 239.09 321.15 244.03 315.70 250.33 314.40 M 254.29 322.33 C 249.28 323.13 244.96 327.61 246.00 333.00 C 244.53 338.44 249.57 343.96 254.99 343.03 C 260.33 344.41 266.50 338.30 265.00 333.00 C 266.68 326.83 259.95 321.05 254.29 322.33 Z" />
<path fill="#1489c6" opacity="1.00" d=" M 282.30 314.30 C 287.45 311.81 288.40 314.35 288.09 318.00 C 293.48 313.51 302.31 311.95 307.69 317.33 C 308.65 317.70 309.59 319.76 310.67 318.68 C 316.41 312.59 326.90 312.19 332.85 318.20 C 336.80 328.68 334.39 340.09 334.96 351.01 C 331.92 351.12 327.93 351.99 326.32 348.71 C 321.80 340.72 329.33 328.83 321.77 322.14 C 317.75 321.01 313.57 323.54 312.29 327.30 C 311.53 334.77 312.45 342.31 311.84 349.79 C 307.85 354.44 299.63 348.37 302.04 343.01 C 301.63 336.45 303.08 329.28 299.72 323.28 C 296.00 320.54 290.16 322.61 289.08 327.06 C 286.84 334.80 288.58 343.07 287.95 351.01 C 284.84 351.24 280.99 351.87 279.23 348.73 C 277.98 343.57 278.14 338.21 278.84 332.99 C 278.50 327.41 278.11 321.72 279.21 316.20 C 280.05 315.29 281.19 314.80 282.30 314.30 Z" />
</g>
<g id="#ea8828ff">
<path fill="#ea8828" opacity="1.00" d=" M 258.34 144.56 L 262.95 144.00 C 263.10 174.00 262.91 204.00 263.04 234.01 C 262.87 235.67 263.49 237.82 261.80 238.88 C 231.30 236.74 200.70 236.47 170.23 233.80 C 169.95 233.55 169.40 233.04 169.13 232.79 C 168.86 207.50 169.01 182.21 169.05 156.92 C 174.11 158.08 176.90 163.99 182.06 165.06 C 180.49 161.69 174.83 158.13 175.65 154.71 C 203.00 151.01 230.85 148.34 258.34 144.56 Z" />
<path fill="#ea8828" opacity="1.00" d=" M 65.06 144.99 C 76.28 144.71 87.21 147.78 98.34 148.58 C 114.48 150.72 130.67 152.01 146.79 154.22 C 147.98 154.77 148.52 156.42 147.25 157.24 C 145.33 159.14 143.08 161.15 142.95 164.06 C 147.08 163.92 148.77 158.13 152.81 158.08 C 155.08 163.37 153.50 169.44 154.02 175.00 C 153.47 194.60 155.15 214.45 152.90 233.83 C 123.61 235.58 94.35 237.12 65.04 237.97 C 64.99 206.98 64.93 175.98 65.06 144.99 Z" />
<path fill="#ea8828" opacity="1.00" d=" M 88.34 244.41 C 96.88 242.33 106.06 245.86 111.87 252.20 C 112.64 254.20 111.16 255.69 109.74 256.83 C 105.35 258.44 102.01 255.13 98.31 253.68 C 86.44 248.81 72.89 262.08 77.98 274.02 C 78.68 279.84 84.64 282.81 89.67 284.41 C 96.10 286.97 101.12 281.14 106.95 280.01 C 109.34 280.92 112.91 282.62 111.87 285.78 C 107.18 289.00 102.51 292.89 96.66 293.53 C 86.06 295.15 73.63 289.59 70.03 278.99 C 66.68 271.80 66.86 262.85 71.01 256.01 C 74.79 249.74 81.43 246.16 88.34 244.41 Z" />
<path fill="#ea8828" opacity="1.00" d=" M 132.31 256.40 C 141.13 256.21 150.43 262.43 151.41 271.69 C 153.47 277.19 149.61 281.97 147.81 286.84 C 142.07 292.54 132.26 295.49 124.99 291.01 C 115.58 287.00 111.63 273.17 118.01 265.00 C 121.02 259.90 126.54 257.01 132.31 256.40 M 130.31 265.28 C 124.16 267.44 122.06 275.92 126.00 281.00 C 129.12 287.69 139.81 285.41 141.82 278.85 C 145.66 271.74 138.29 262.61 130.31 265.28 Z" />
<path fill="#ea8828" opacity="1.00" d=" M 159.27 256.28 C 162.13 254.83 164.47 257.04 164.25 260.00 C 167.70 259.39 169.71 254.96 174.00 257.00 C 179.21 256.00 184.84 260.17 185.58 265.33 C 186.36 274.19 186.00 283.12 185.94 292.01 C 181.93 293.88 179.38 291.25 177.22 288.72 C 176.44 281.27 178.03 273.49 175.75 266.24 C 173.18 264.63 169.79 264.78 167.16 266.20 C 161.23 273.50 165.12 283.48 163.95 292.02 C 159.93 293.87 157.39 291.25 155.21 288.72 C 154.82 278.90 154.89 269.05 155.16 259.23 C 156.32 257.98 157.68 256.93 159.27 256.28 Z" />
<path fill="#ea8828" opacity="1.00" d=" M 205.23 256.42 C 209.23 256.18 212.58 258.35 216.01 259.98 C 218.70 258.24 221.15 255.03 224.85 256.06 C 226.46 263.97 224.77 272.05 225.93 280.01 C 225.85 285.00 224.75 289.93 224.89 294.95 C 221.95 304.53 209.72 307.84 200.99 305.00 C 196.35 303.84 190.50 300.38 190.15 295.23 C 193.72 291.34 199.36 295.47 203.10 296.87 C 206.89 296.88 211.84 298.05 214.77 294.77 C 216.12 293.28 218.02 290.75 215.89 289.07 C 205.84 297.79 188.52 288.10 189.99 275.00 C 188.27 265.85 195.86 256.44 205.23 256.42 M 204.30 265.28 C 198.50 267.10 197.95 274.49 199.60 279.36 C 202.41 285.97 213.51 285.98 215.98 278.97 C 220.61 271.90 212.11 262.04 204.30 265.28 Z" />
<path fill="#ea8828" opacity="1.00" d=" M 241.31 257.33 C 245.75 257.23 250.74 255.83 254.84 258.21 C 263.90 261.52 268.61 273.58 263.97 281.99 C 261.52 291.10 249.97 294.72 241.65 292.42 C 232.37 289.56 226.66 278.92 229.58 269.65 C 231.69 264.25 235.78 259.37 241.31 257.33 M 245.33 265.42 C 236.23 266.41 235.56 281.47 243.97 284.05 C 251.56 288.06 259.29 277.86 255.91 271.06 C 255.01 266.53 249.40 264.53 245.33 265.42 Z" />
</g>
</svg>
