<?xml version="1.0" encoding="UTF-8"?>
<svg id="Calque_1" data-name="Calque 1" xmlns="http://www.w3.org/2000/svg" viewBox="0 0 546.38 667.86">
  <defs>
    <style>
      .cls-1 {
        fill: #fff;
      }
    </style>
  </defs>
  <path class="cls-1" d="M538.28,483.21c-12.11-46.63-36.04-85.76-75.24-114.75-.36-.27-.57-.75-1.15-1.54,12.01-12.9,15.23-27.63,7.34-44.52,16.34-13.01,20.46-29.31,12.41-48.5,20.61-16.51,22.52-43.42-.21-61.87,5.93-13.49,6.11-26.91-3.04-39.36-9.2-12.53-22.39-15.77-38.88-14.58,2.5-3.18,3.95-5.14,5.53-6.99,13.1-15.31,26.28-30.57,39.34-45.92,13.1-15.39,11.17-30.66-5.85-41.16-11.43-7.05-23.55-12.98-35.9-19.7,0-.06-.06-1.01,.22-1.84,6.14-18.17,.19-30.18-18.02-35.46-32.46-9.41-64.98-9.36-97.43,.13-17.27,5.05-23.52,17.29-17.83,34.47,.36,1.08,.52,2.23,.61,2.64-12.8,7.08-25.46,13.46-37.48,20.89-14.78,9.14-16.82,24.92-5.72,38.27,3.93,4.72,7.92,9.38,10.72,12.68-15.31,16.25-30.23,32.08-45.15,47.91l-.41-.18v1.51h-8.01v1.7h-5.1v1.94h-13.16v.41H24.24c0-16.02,.09-31.42-.04-46.81-.07-7.74-4.43-12.63-11.16-13.11-6.26-.45-11.67,3.65-12.78,9.91-.37,2.08-.24,4.25-.24,6.39V384.04c0,1.42-.06,2.85,.04,4.27,.48,7.42,5.25,12.22,12.1,12.22s11.89-4.78,12.02-12.23c.23-13.28,.08-26.56,.09-39.84v-7.99H206.39v253.14c.63,3.21,1.23,5.52,1.8,6.94,2.91,4.39,6.62,8.64,9.05,11.36,4.76,5.32,9.33,10.72,13.2,16.69,.42,0,.77-.01,.91,.15,20.91,23.53,48.67,32.21,78.56,36.2,8.14,1.09,16.32,1.94,24.48,2.91h82.52c14.26-1.91,28.66-3.08,42.74-5.87,32.04-6.37,59.18-20.98,73.32-52.01,5.97-13.1,8.14-27.93,11.98-41.99,.61-2.25,.96-4.57,1.43-6.85v-34.15c-2.65-14.6-4.39-29.44-8.11-43.77h.01ZM319.69,67.1c3.27,8.1,5.75,14.48,8.42,20.77,3.35,7.9,9.55,11,16.24,8.29,6.83-2.77,9.35-9.17,6.25-17.18-5.31-13.68-10.9-27.26-16.36-40.88-.86-2.14-1.62-4.32-2.6-6.93,29.86-9.13,59.12-9.04,89.45-.11-1.71,4.48-3.22,8.58-4.83,12.64-4.62,11.67-9.38,23.28-13.9,34.98-3.25,8.43-.73,14.92,6.49,17.62,6.68,2.49,12.7-.75,16.07-8.78,2.48-5.89,4.81-11.83,7.25-17.74,.17-.4,.61-.7,1.94-2.16,11.14,5.79,22.56,11.72,34.87,18.12-10.66,12.46-20.47,23.91-30.27,35.37-9.25,10.81-18.32,21.78-27.87,32.32-2.08,2.29-5.82,4.23-8.85,4.31-17.06,.41-34.14,.31-51.21,.07-2.53-.04-5.87-1-7.43-2.78-19.66-22.48-39.06-45.19-59.67-69.16,12.1-6.31,23.61-12.32,35.98-18.78h.03Zm-108.01,248.42c-59.27,.63-118.54,.24-177.82,.24h-9.2v-121.58h8.72c60.93,0,121.87-.18,182.8,.14,13.49,.07,24.29-4.19,33.56-13.93,11.94-12.53,24.38-24.58,36.66-36.77,2.48-2.46,5.26-4.64,8.53-7.5,6.35,7.42,12.3,14.37,17.2,20.1-3.14,4.63-6.98,8.21-8.16,12.51-1.98,7.25,4.45,13.35,13.47,13.46,15.88,.2,31.77,.06,47.66,.06,27.27,0,54.53,.04,81.8-.03,5.31-.01,9.87,1.15,12.75,6.05,4.44,7.57-.21,16.79-9.37,18.01-4.2,.56-8.52,.12-12.78,.32-7.57,.35-12.26,4.95-12.3,11.88-.04,6.82,4.65,11.86,12.11,12.22,7.33,.35,14.7,.05,22.05,.14,8.43,.1,13.99,4.73,14.2,11.67,.22,7.27-5.48,12.39-14.19,12.54-7.11,.12-14.23-.09-21.34,.07-8.01,.18-12.87,4.89-12.84,12.09,.03,7.09,4.99,11.77,12.99,12.08,3.79,.15,7.6-.14,11.38,.11,6.87,.45,11.61,5.41,11.65,11.89,.05,6.59-4.49,11.78-11.39,12.13-7.57,.38-15.17,.07-22.76,.16-8.72,.11-14.43,5.14-14.23,12.41,.19,7.05,5.66,11.65,14.1,11.81,2.84,.05,5.69-.05,8.53,.03,8.17,.23,13.86,5.27,13.82,12.2-.04,7.06-5.54,11.99-13.88,12-45.52,.06-91.07-.84-136.55,.44-19.22,.54-34.08-4.19-45.85-19.42-10.37-13.41-24.37-17.72-41.31-17.54h0Zm19.17,29.79c14.54,13.98,26.4,29.93,48.99,30.81-20.38,17.94-36.06,37.55-48.99,59.73v-90.54Zm288.83,227.57c-6.24,37.64-25.74,58.39-63.53,64.76-26.27,4.43-53.13,5.35-79.46,7.81-26.72-2.46-53.12-3.28-78.92-7.64-39.95-6.75-60.03-20.36-65.29-68.72-6.1-56.07,6.3-107.27,41.24-152.18,12.2-15.68,27.2-28.4,44.88-37.62,3.39-1.77,7.58-2.79,11.41-2.82,30.8-.22,61.61-.25,92.41,.02,4.26,.04,8.96,1.25,12.69,3.3,32.6,18.02,54.78,45.44,69.36,79.2,15.75,36.46,21.74,74.5,15.21,113.88h0Z"/>
  <path class="cls-1" d="M394.61,485.4c-1.91-1.57-5.65-4.19-8.83-7.36-4.43-4.42-9.39-5.55-14.87-2.93-5.01,2.4-7.26,6.86-6.41,12.34,.9,5.77,4.53,9.22,10.4,10.09,2.11,.31,4.24,.46,6.35,.78,15.04,2.26,25.09,10.74,29.81,25.04,5.45,16.51-1.74,34.11-17.07,42.55-3.22,1.78-5.39,3.26-6.04,7.57-.9,5.96-5.46,9.27-11.77,9.15-6.32-.12-9.64-3.86-11.79-9.54-1.01-2.66-3.23-5-5.32-7.07-4.32-4.28-9.54-7.8-13.25-12.53-4.22-5.39-2.6-12.61,2.46-16.39,5.21-3.89,11.86-3.09,16.6,2.04,1.28,1.39,2.28,3.1,3.73,4.26,4.3,3.43,9.66,4.69,13.67,.99,3.05-2.82,5.5-7.73,5.71-11.84,.27-5.28-3.81-8.95-9.38-9.97-2.33-.43-4.71-.57-7.05-.91-16.12-2.33-28.23-13.97-31.1-29.86-2.67-14.81,4.71-30.23,18.38-37.72,3.26-1.79,5.31-3.4,6.02-7.62,.99-5.93,5.5-9.3,11.8-9.16s9.62,3.91,11.76,9.59c1,2.66,3.24,5,5.32,7.08,4.46,4.47,10.13,8.03,13.59,13.13,5.39,7.92-.79,18.31-12.73,18.29h0Z"/>
</svg>