<?xml version="1.0" encoding="UTF-8"?>
<svg id="Calque_1" data-name="Calque 1" xmlns="http://www.w3.org/2000/svg" viewBox="0 0 415.04 608.03">
  <defs>
    <style>
      .cls-1 {
        fill: #c1272d;
      }
    </style>
  </defs>
  <path class="cls-1" d="M.03,304.21C.03,225.12-.05,146.03,.07,66.94,.12,32.6,22.4,6.07,56.38,1.35c13.52-1.88,27.6-1.61,41.24-.34,18.27,1.69,31.31,15.51,35.11,34.51,.97,4.87,1.69,9.8,2.97,14.59,4.81,17.91,21.06,31.16,39.63,31.52,21.46,.42,42.95,.45,64.41,0,20.33-.43,36.59-15.21,40.83-36.08,.94-4.64,1.66-9.34,2.81-13.93,4.65-18.47,20.36-31.07,39.44-31.12,12.85-.03,25.88-.53,38.52,1.31,29.76,4.33,52.18,30.3,53.59,60.38,.1,2.03,.11,4.07,.11,6.1,0,157.28,.02,314.56-.01,471.84,0,32.3-18.63,57.63-48.39,65.51-6.03,1.6-12.48,2.26-18.73,2.27-93.57,.14-187.14,.15-280.71,.07C28.22,607.94,.11,579.82,.06,540.82c-.09-78.87-.03-157.73-.03-236.6h0Zm165.96,116.86h59.37c24.18,0,48.36,.11,72.53-.07,12.28-.09,20.58-9.08,19.83-20.84-.72-11.23-9.17-18.16-22.71-18.19-40.45-.08-80.89-.03-121.34-.03h-8.54c.86-1.85,1.2-2.63,1.59-3.39,5.27-10.22,3.68-20.14-4.2-26.24-8.11-6.27-18.76-5.27-26.95,2.79-10.79,10.62-21.5,21.32-32.11,32.12-7.21,7.34-9.07,18.22-2.71,25.19,12.32,13.49,25.36,26.38,38.75,38.81,5.72,5.31,13.39,5.03,20.36,1.29,6.76-3.63,10.44-9.56,9.88-17.18-.33-4.53-2.28-8.94-3.74-14.26h-.01Zm83.96-113.4c-.92,1.93-1.35,2.9-1.85,3.84-5.18,9.87-3.32,20.06,4.78,26.07,8.03,5.96,18.5,4.99,26.42-2.78,10.81-10.6,21.53-21.28,32.11-32.11,8.17-8.35,9.02-19.26,1.4-27.39-11.43-12.19-23.3-23.99-35.4-35.51-7.04-6.7-17.39-6.61-24.88-.8-7.4,5.74-9.54,15.69-5.22,24.39,.77,1.54,1.63,3.03,2.85,5.31H122.73c-2.71,0-5.43-.05-8.13,.2-9.5,.89-16.69,8.39-17.26,17.83-.6,9.98,5.55,18.37,15.16,20.29,2.85,.57,5.83,.63,8.76,.63,39.99,.04,79.98,.03,119.97,.03h8.72Z"/>
  <path class="cls-1" d="M152.73,.56h107.83c-10.43,4.72-13.45,13.81-15.37,24.12-2.02,10.86-10.59,17.56-21.65,17.83-10.15,.25-20.3,.19-30.46,.06-12.98-.16-20.89-6.86-23.62-19.71-2.75-12.96-5.12-16.32-16.75-22.3h.02Z"/>
</svg>