<?xml version="1.0" encoding="utf-8"?>
<!-- Generator: Adobe Illustrator 26.5.0, SVG Export Plug-In . SVG Version: 6.00 Build 0)  -->
<svg version="1.1" id="Calque_1" xmlns="http://www.w3.org/2000/svg" xmlns:xlink="http://www.w3.org/1999/xlink" x="0px" y="0px"
	 viewBox="0 0 222 235" style="enable-background:new 0 0 222 235;" xml:space="preserve">
<style type="text/css">
	.st0{fill:#17338D;}
</style>
<g>
	<path class="st0" d="M126.39,131.27c-1.56,0-3.11,0-4.67,0c-23.49,0-46.98,0.01-70.46-0.01c-2.12,0-4.26,0-6.35-0.29
		c-5.74-0.79-9.55-5.38-9.29-11c0.26-5.58,4.5-10.02,10.29-10.08c15.66-0.16,31.32-0.09,46.97-0.1c10.35-0.01,20.7,0,31.05,0
		c0.87,0,1.74,0,3.75,0c-3.16-3.28-5.54-5.82-8-8.29c-5.23-5.26-10.55-10.43-15.75-15.72c-4.94-5.03-5.15-11.38-0.69-15.9
		c4.3-4.36,11-4.12,15.95,0.81c13.93,13.84,27.81,27.72,41.64,41.66c4.78,4.82,5.07,11.1,0.6,15.61
		c-14.17,14.33-28.43,28.57-42.74,42.77c-3.96,3.93-9.29,4.51-13.48,1.88c-4.26-2.68-6.18-7.51-4.53-12.42
		c0.6-1.79,1.87-3.5,3.21-4.88c6.47-6.65,13.05-13.19,19.64-19.73c1.11-1.1,2.46-1.95,3.7-2.91
		C126.95,132.2,126.67,131.74,126.39,131.27z"/>
</g>
</svg>
