<?xml version="1.0" encoding="UTF-8"?>
<svg id="Calque_1" data-name="Calque 1" xmlns="http://www.w3.org/2000/svg" viewBox="0 0 565 529.72">
  <defs>
    <style>
      .cls-1 {
        fill: #fff;
      }
    </style>
  </defs>
  <path class="cls-1" d="M0,176.78H34.01c2.15,7.71,3.32,15.27,6.39,21.94,3,6.52,7.96,12.14,12.77,19.21,1.63-2.72,2.48-3.99,3.18-5.35,18.44-35.88,45.36-63.54,80.77-82.83,3.22-1.75,4.28-3.55,4.31-7.18C142.03,51.32,202.92-4.87,273.74,.33c52.72,3.87,96.88,40.47,110.62,91.67,.43,1.59,.89,3.18,1.59,5.64,32.27-24.41,69.09-29.54,108.66-26.2v5.42c0,35.69-.07,71.39,.12,107.08,.02,3.05,1.28,6.33,2.72,9.11,5.72,11.08,11.89,21.94,17.56,33.05,1.37,2.68,2.63,3.8,5.71,3.76,12.88-.18,25.76-.08,38.64-.08h5.64v141.31h-5.24c-12.88,0-25.76,.09-38.64-.07-3.15-.04-4.89,.75-6.17,3.89-8.49,20.8-20.54,39.36-35.44,56.16-1.59,1.79-2.43,4.86-2.45,7.35-.17,28.33-.11,56.67-.11,85v6.3h-123.64v-35.34H212.3v35.24H88.33v-5.72c0-28.33,.1-56.67-.14-85-.02-2.93-1.33-6.45-3.23-8.68-43.36-50.63-58.45-108.42-44.37-173.66,.81-3.73,.19-5.75-3.09-8.07C17.12,234.1,4.92,214.48,1.01,189.77c-.17-1.05-.66-2.05-1-3.07v-9.92Zm148.21-12.4c-44.86,25.27-76.14,77.87-77.44,129.66-1.19,47.39,15.12,87.8,48.94,121.03,2.86,2.81,4.05,5.55,4.02,9.57-.2,21.34-.09,42.69-.09,64.03v5.79h52.97v-43.21c35.1,11.1,70.58,8.03,105.8,8.05,35.38,.02,71,2.94,106.3-7.9v42.96h52.89c0-23.91-.08-47.44,.13-70.96,.02-2.4,1.19-5.44,2.89-7.09,21.49-20.83,36.46-45.54,44.45-74.36,1.4-5.04,3.62-6.54,8.74-6.32,10.58,.45,21.19,.13,31.68,.13v-70.66c-10.55,0-20.67-.33-30.77,.13-5.62,.25-8.29-1.12-9.88-7.02-5.36-19.9-14.65-37.97-27.11-54.45-1.5-1.99-2.35-4.98-2.37-7.51-.16-27.97-.1-55.94-.1-83.9v-5.97c-28.59,2.8-51.45,14.74-69.46,35.87-1.93,2.26-3.51,5.23-4.16,8.11-4.95,21.85-15.03,40.94-30.13,57.44-1.05,1.15-2.07,2.32-3.96,4.43h36.6v34.89H141.69v-35.37h36.55c-13.94-14.01-23.49-29.54-30.03-47.37h.01ZM265.11,35.48c-48.16-.23-88.21,39.32-88.45,87.33-.25,48.87,38.85,88.97,87.05,89.28,49.4,.32,89.36-38.89,89.55-87.89,.2-48.84-39.2-88.5-88.15-88.73h0Z"/>
  <path class="cls-1" d="M441.59,265.22c-.06,9.6-8.03,17.52-17.63,17.53-9.8,0-17.87-8.24-17.66-18.06,.21-9.63,8.25-17.37,17.9-17.24,9.58,.13,17.45,8.17,17.39,17.77h0Z"/>
  <path class="cls-1" d="M247.7,71.06h34.81v34.87h35.13v35.25h-69.93V71.06h-.01Z"/>
</svg>