<?xml version="1.0" encoding="UTF-8"?>
<svg id="Calque_1" data-name="Calque 1" xmlns="http://www.w3.org/2000/svg" viewBox="0 0 315.6 359.78">
  <defs>
    <style>
      .cls-1 {
        fill: #fdfdfd;
      }
    </style>
  </defs>
  <path class="cls-1" d="M191.94,328.9V132.43c0-10.21,12.94-14.61,19.17-6.52l49.15,63.88c11.36,14.77,33.13,16.18,46.31,3h0c11.33-11.33,12.11-29.43,1.81-41.69L190.7,11.02c-11.48-13.67-32.12-14.78-45.01-2.43L9.51,139.09c-11.18,10.72-12.7,28.06-3.54,40.55l2.16,2.95c11.75,16.02,35.35,16.94,48.3,1.88l52.47-60.98c6.59-7.66,19.16-2.93,19.06,7.18l-1.95,197.93c-.17,17.17,13.7,31.18,30.88,31.18h4.15c17.05,0,30.88-13.82,30.88-30.88Z"/>
</svg>