<?xml version="1.0" encoding="UTF-8"?>
<svg id="Calque_1" data-name="Calque 1" xmlns="http://www.w3.org/2000/svg" viewBox="0 0 243.99 235.89">
  <defs>
    <style>
      .cls-1 {
        fill: #fff;
      }
    </style>
  </defs>
  <path class="cls-1" d="M143.67,85.93c0,1.92-.03,3.83,0,5.75,.82,39.55,1.64,79.1,2.48,118.65,.2,9.64-3.74,17.16-12.03,22.04-7.95,4.68-16.29,4.69-24.26,.05-8.33-4.84-12.03-12.39-12.22-21.99-.83-41.04-1.81-82.09-2.73-123.13-.03-1.32-.11-2.64-.23-5.12-1.83,1.63-3.13,2.68-4.3,3.86-16.27,16.21-32.47,32.49-48.82,48.62-7.14,7.05-15.78,9.21-25.31,5.83-9.28-3.29-14.68-10.16-16.01-19.89-1.03-7.53,1.27-14.25,6.63-19.61C38.16,69.67,69.46,38.36,100.91,7.21c9.62-9.53,24.16-9.65,33.76-.15,34.18,33.84,68.22,67.81,102.16,101.89,9.73,9.78,9.41,24.6-.11,34.06-9.46,9.4-24.36,9.59-34.17-.03-17.23-16.9-34.22-34.03-51.28-51.1-2.11-2.11-4.03-4.41-6.04-6.62-.52,.22-1.03,.44-1.55,.66Z"/>
</svg>