<?xml version="1.0" encoding="UTF-8"?>
<svg id="Calque_1" data-name="Calque 1" xmlns="http://www.w3.org/2000/svg" viewBox="0 0 292.79 243.54">
  <defs>
    <style>
      .cls-1 {
        fill: #fff;
      }
    </style>
  </defs>
  <path class="cls-1" d="M43.99,231.59s-25.69-82.19,30.82-82.19h117.89c5.09,0,7.6,6.16,3.97,9.73-18.59,18.21-54.88,56.99-43.93,72.47,0,0,13.97,19.45,43,1.58,1.64-1.01,3.13-2.29,4.46-3.69l86.23-91.13c3.41-3.6,5.72-8.18,6.2-13.11,.93-9.63-1.55-25.49-22.79-38.63-1.56-.96-3.05-2.07-4.35-3.36L188.58,6.94c-19.31-19.15-50.69,4.96-36.57,28.2,.45,.74,.92,1.5,1.41,2.26,.65,1.01,1.41,2,2.21,2.9l55.12,62.49c3.28,3.72,.64,9.58-4.32,9.58H56.01c-2.21,0-4.41,.29-6.53,.93-14.3,4.32-65.55,25.86-44.45,108.9,.39,1.52,.91,3.01,1.59,4.43,3.31,6.86,14.25,23.5,39.45,14.09"/>
</svg>