<?xml version="1.0" encoding="utf-8"?>
<!-- Generator: Adobe Illustrator 26.5.0, SVG Export Plug-In . SVG Version: 6.00 Build 0)  -->
<svg version="1.1" id="Calque_1" xmlns="http://www.w3.org/2000/svg" xmlns:xlink="http://www.w3.org/1999/xlink" x="0px" y="0px"
	 viewBox="0 0 165.45 149.36" style="enable-background:new 0 0 165.45 149.36;" xml:space="preserve">
<style type="text/css">
	.st0{fill:#2242AD;}
</style>
<path class="st0" d="M109.63,61.79c0,9.73-0.03,19.46,0.01,29.19c0.02,3.75-3.18,6.76-6.75,6.78c-13.32,0.08-26.65,0.06-39.97,0.01
	c-3.92-0.02-7.02-3.07-7.01-7.03c0.03-19.5,0.03-39,0-58.49c0-3,2.55-6.11,5.63-6.46c0.96-0.11,1.92-0.23,2.88-0.23
	c12.58-0.02,25.16-0.02,37.75,0c2.22,0,4.28,0.62,5.76,2.4c0.99,1.19,1.71,2.54,1.71,4.17C109.63,42.01,109.63,51.9,109.63,61.79z
	 M82.93,35.87c-7.88-0.3-13.47,6.25-13.31,13.15c0.18,7.58,5.62,13.04,13.16,13.04c7.63-0.01,13.05-5.75,13.12-13.06
	C95.99,41.83,90.33,35.69,82.93,35.87z M82.85,67.3c-3.28,0-6.56,0-9.84,0c-1.24,0-2.17,1.01-2.08,2.22c0.08,1,1.17,1.76,2.59,1.76
	c6.09,0.01,12.18,0.01,18.27-0.01c0.37,0,0.75-0.11,1.12-0.2c1.28-0.32,1.82-0.92,1.72-1.89c-0.12-1.14-0.96-1.88-2.17-1.88
	C89.25,67.29,86.05,67.3,82.85,67.3z M82.95,75.98c-3.16,0-6.32-0.01-9.49,0.01c-0.41,0-0.82,0.12-1.23,0.19
	c-1.15,0.2-1.41,1.05-1.26,1.99c0.15,0.93,0.66,1.58,1.79,1.58c6.69-0.03,13.37-0.01,20.06-0.03c0.38,0,0.84-0.16,1.13-0.4
	c0.69-0.57,0.88-1.34,0.54-2.19c-0.33-0.81-0.95-1.16-1.82-1.16C89.43,75.98,86.19,75.98,82.95,75.98z M83.02,84.65
	c-3.4,0-6.79-0.01-10.19,0.01c-1.17,0.01-1.9,0.76-1.9,1.87c0,1.11,0.73,1.87,1.9,1.87c6.64,0.01,13.27,0.01,19.91,0
	c1.16,0,1.89-0.78,1.88-1.89c-0.01-1.11-0.75-1.86-1.88-1.86C89.5,84.65,86.26,84.65,83.02,84.65z"/>
<path d="M82.75,125.7c-18.8,0-37.6,0.02-56.4-0.02c-3.48-0.01-5.93-1.62-6.83-4.9c-0.37-1.35-0.22-2.87-0.17-4.3
	c0.04-1.13,0.91-1.54,1.93-1.56c1.91-0.03,3.83-0.01,5.75-0.01c13.52,0,27.05,0,40.57,0c1.59,0,2.09,0.36,2.65,1.86
	c0.66,1.78,2.14,2.83,4.07,2.83c5.51,0.01,11.02,0,16.53,0c2.46,0,3.58-0.8,4.52-3.12c0.41-1,1.12-1.59,2.31-1.58
	c15.48,0.02,30.96,0.01,46.43,0.01c1.45,0,2.24,0.67,2.32,2.27c0.12,2.52-0.26,4.93-2.3,6.75c-1.43,1.27-3.14,1.76-4.98,1.76
	C120.35,125.71,101.55,125.7,82.75,125.7z"/>
<path d="M32.78,108.29c33.37,0,66.66,0,100.01,0c0-19.27,0-38.49,0-57.83c-6.1,0-12.21,0-18.39,0c0-1.39,0-2.65,0-4.04
	c0.41,0,0.79,0,1.17,0c5.51,0,11.02,0,16.53,0c2.72,0,4.5,1.77,4.5,4.46c0,19.07,0,38.15,0,57.22c0,2.49-1.73,4.23-4.2,4.23
	c-33.07,0-66.14,0-99.2,0c-2.55,0-4.25-1.72-4.25-4.29c0-19.04,0-38.07,0-57.11c0-2.72,1.77-4.51,4.45-4.51c5.51,0,11.02,0,16.53,0
	c0.38,0,0.77,0,1.22,0c0,1.35,0,2.61,0,3.96c-6.12,0-12.21,0-18.37,0C32.78,69.71,32.78,88.96,32.78,108.29z"/>
<path class="st0" d="M82.75,37.98c6.61-0.2,11.12,5.13,11.1,10.89c-0.02,6.12-4.59,11.16-11.15,11.09
	c-6.49-0.07-10.99-4.95-11-11.13C71.7,43.14,76.26,37.73,82.75,37.98z M83.82,56.45c0.27-0.56,0.4-1.06,0.71-1.42
	c0.42-0.49,1.02-0.82,1.47-1.29c1.08-1.13,0.93-3.74-0.34-4.63c-1.18-0.83-2.52-1.43-3.7-2.25c-0.34-0.24-0.67-0.97-0.55-1.3
	c0.15-0.42,0.76-0.92,1.2-0.95c0.73-0.04,1.47,0.29,2.22,0.41c0.36,0.06,1.01,0.1,1.06-0.03c0.16-0.42,0.27-1.01,0.09-1.38
	c-0.2-0.4-0.77-0.6-1.15-0.92c-0.28-0.24-0.5-0.54-0.77-0.79c-0.25-0.23-0.53-0.59-0.8-0.59c-0.58,0.01-1.66,0.26-1.65,0.32
	c0.1,1.02-0.75,1.19-1.3,1.66c-1.92,1.64-1.54,4.66,0.7,5.83c0.75,0.39,1.51,0.74,2.29,1.06c0.92,0.39,1.13,1.1,0.99,1.99
	c-0.14,0.85-0.74,1.17-1.51,1.05c-1.19-0.18-2.36-0.45-3.65-0.7c-0.68,0.88-0.41,1.92,0.88,2.35c0.84,0.28,1.71,0.45,1.57,1.59
	C82.46,56.45,83.23,56.45,83.82,56.45z"/>
</svg>
