<?xml version="1.0" encoding="UTF-8"?>
<svg version="1.1" viewBox="0 0 2021 2048" width="2480" height="2513" xmlns="http://www.w3.org/2000/svg">
<path transform="translate(1125,81)" d="m0 0h111v2h12l13 2 25 4 28 6 4 2 9 2 15 5 21 8 26 12 9 6 19 12 24 18 14 11 16 14 8 8 8 7 16 17 16 20 11 15 7 11 12 21 8 16 3 7 11 33 6 26 1 7v302l-1 66-1 2-2 106-1 3-2 85-1 2-2 74-1 3v30l-1 2-2 62-1 3-2 56-1 6-2 52-1 4v22l-2 8v19l-1 4-2 27-6 32-2 6-2 9-6 21-8 20-7 16-8 15-7 14-7 12-12 19-10 14-9 12-11 14-11 12-4 6-9 9-7 8-37 37-8 7-10 9-8 7-12 11-8 6-16 15-5 4h-2l-1 3-10 8-17 16-13 11-11 11-8 7-5 4-7 11-10 14-9 11-11 13-8 8-2 3h-2l-1 3-8 7-14 13-10 8-18 13-14 9-18 11-16 8-21 10-15 6-26 9-24 7-24 6-22 4-19 3-28 3-17 1h-60l-2-1 1-3 20-9 15-8 16-8 20-11 23-14 21-14 18-13 16-13 11-9 14-12 16-15 11-11 7-8 11-12 11-14 12-16 12-18 8-13 6-10 6-11 9-20 4-9 8-19 9-28 6-23 4-21 3-21 1-14v-52l3-77 2-60 2-51 3-78 1-38 2-41 2-67 2-48 4-110 5-136 4-68v-46l-3-45-4-32-7-37-7-27-10-30-11-27-8-16-9-17-12-19-10-14-7-9-9-11-12-13-15-15-11-9-15-12-21-14-13-8-19-9-11-5-30-10-24-5-8-2-32-4-13-1-43-2-3-1-17-1-6-1 1-5 6-7 8-7 15-14 8-6 13-10 17-11 13-8 8-5 16-8 17-8 10-5 16-6 10-4 14-5 8-3 9-2 5-2 8-2 14-4 31-7 35-6 17-2 6-1h12z" fill="#0100FB"/>
<path transform="translate(793,462)" d="m0 0h19l16 2 14 4 13 5 15 8 12 9 13 11 11 6 5 5 7 5v2l4 2 12 17 8 17 6 16 3 11 4 17 3 16 1 2v25l-1 2-2 81-1 3v37l-1 3-1 40-1 6v34l-1 2-2 80-1 3-1 40-1 4v37l-1 4-1 40-1 3v35l-1 5-1 41-1 5v34l-1 4-2 80-1 2-2 83-1 2-2 81-1 5v35l-1 3-2 29-2 9-5 25-7 22-4 10-10 20-8 11-8 10-7 7-11 8-8 4-17 6-12 5-30 8-25 6-16 2h-24l-21-3-12-3-19-7-16-8-14-10-10-9-9-9-11-16-8-15-11-27-7-21-3-8v-890l11-36 6-16 9-19 10-18 10-14 9-11 11-12 8-7 15-11 14-8 13-6 21-6 21-3 18-1 14-1z"/>
<path transform="translate(998,219)" d="m0 0h66l14 1 24 4 16 3 27 7 12 4 26 11 16 8 10 6 11 7 11 8 10 8 12 11 11 10 7 8 8 9v2h2l8 11 12 17 7 12 8 14 10 21 11 28 8 24 4 15 6 26 3 17 4 26 2 26v79l-2 64-2 37-1 35-2 34-3 74-1 5-2 57-2 32-2 44-1 13-2 50-1 8-2 54-2 29-2 43-1 11-2 48-1 8-2 44-1 10-3 65-2 32-2 35-1 16-4 31-3 21-1 2-2 13-3 15-2 5-6 24-7 21-7 19-7 16-8 16-10 19-5 8-1 5-8 12-10 14-9 11-11 13-8 8-2 3h-2l-1 3-8 7-14 13-10 8-18 13-14 9-18 11-16 8-21 10-15 6-26 9-24 7-24 6-22 4-19 3-28 3-17 1h-60l-2-1 1-3 20-9 15-8 16-8 20-11 23-14 21-14 18-13 16-13 11-9 14-12 16-15 11-11 7-8 11-12 11-14 12-16 12-18 8-13 6-10 6-11 9-20 4-9 8-19 9-28 6-23 4-21 3-21 1-14v-52l3-77 2-60 2-51 3-78 1-38 2-41 2-67 2-48 4-110 5-136 4-68v-46l-3-45-4-32-7-37-7-27-10-30-11-27-8-16-9-17-12-19-10-14-7-9-9-11-12-13-15-15-11-9-15-12-21-14-13-8-19-9-11-5-23-8v-2l-6-1-2-3-16-4-3-3 2-1 15-2 28-3 4-1z"/>
<path transform="translate(888,509)" d="m0 0 16 1 5 1 9 6v2l4 2 12 17 8 17 6 16 3 11 4 17 3 16 1 2v25l-1 2-2 81-1 3v37l-1 3-1 40-1 6v34l-1 2-2 80-1 3-1 40-1 4v37l-1 4-1 40-1 3v35l-1 5-1 41-1 5v34l-1 4-2 80-1 2-2 83-1 2-2 81-1 5v35l-1 3-2 29-2 9-5 25-7 22-4 10-10 20-8 11-8 10-7 7-11 8-8 4-3-1-14-5-11-7-7-7-8-11-3-5-3-7-7-19-4-17-2-19-1-2v-885l1-3 2-23 4-21 4-15 6-17 8-16 6-9 7-9 7-7 15-10 11-4 8-2z" fill="#0100FB"/>
</svg>
