<?xml version="1.0" encoding="utf-8"?>
<!-- Generator: Adobe Illustrator 26.5.0, SVG Export Plug-In . SVG Version: 6.00 Build 0)  -->
<svg version="1.1" id="Calque_1" xmlns="http://www.w3.org/2000/svg" xmlns:xlink="http://www.w3.org/1999/xlink" x="0px" y="0px"
	 viewBox="0 0 252.92 253.18" style="enable-background:new 0 0 252.92 253.18;" xml:space="preserve">
<style type="text/css">
	.st0{fill:#808182;}
</style>
<g>
	<g>
		<path class="st0" d="M252.46,171.62c-5.82,13.9-11.62,17.65-27.37,17.66c-11.15,0.01-22.3,0.12-33.45-0.06
			c-3.93-0.07-5.6,0.8-6.34,5.24c-1.95,11.72-6.88,21.67-19.79,24.91c-1.77,0.44-3.99,1.06-5.45,0.39
			c-5.76-2.64-9.56,0.28-14.16,3.28c-9.27,6.05-19.86,3.16-27.14-6.71c-10.84,4.92-21.71,8.3-29.16-3.26
			c-12.63,1.42-24.55,3.07-36.52,4.03c-15.2,1.21-30.45,1.86-45.68,2.75c-0.62,0.04-1.39,0.27-1.83,0
			c-2.37-1.44-4.66-3.01-6.98-4.53c2-1.85,3.86-5.1,6.03-5.33c11.67-1.22,23.42-1.65,35.14-2.42c11.29-0.75,22.6-1.44,33.87-2.44
			c8.29-0.73,15.32-4.46,21.31-10.18c1.79-1.71,3.66-3.36,5.31-5.19c7.52-8.37,15.99-14.85,27.01-18.63
			c7.59-2.6,14.4-7.79,21.12-12.46c2.69-1.87,4.55-5.25,6.15-8.27c2.4-4.53,1.96-9.22-1.21-13.34c-3.27-4.24-8.03-3.5-11.93-1.99
			c-9.73,3.78-19.21,8.22-28.73,12.54c-11.03,5-21.99,10.17-33,15.22c-3.25,1.49-6.98,3.18-9.06-1.23
			c-1.95-4.14,0.83-6.76,4.52-7.93c4.08-1.3,4.94-3.78,4.89-7.81c-0.22-18.78-0.1-37.57-0.1-56.3c-5.25-3.48-9.16-0.63-12.96,2.24
			c-19.38,14.64-38.74,29.29-58.03,44.04c-3.11,2.38-6.23,4.11-9.09,0.49c-3.37-4.25,0.18-6.45,3.29-8.81
			c19.56-14.76,39.03-29.63,58.56-44.42c5.4-4.09,11.09-6.91,18.31-4.84c1.55,0.44,4.28-0.84,5.52-2.2
			c5.51-6.03,12.04-8.68,20.29-8.64c39.03,0.2,78.06,0.44,117.08-0.09c14.63-0.2,24.43,5.12,29.57,18.82
			C252.46,114.63,252.46,143.13,252.46,171.62z M90.6,113.46c0,10.84,0,21.63,0,32.93c4.65-2.09,9.27-4.19,13.9-6.24
			c11.25-4.98,22.32-10.42,33.82-14.73c8.03-3.01,16.22-2.67,22.54,4.71c6.37,7.43,7.3,16.35,2.98,24.19
			c-3.7,6.72-10.16,12.05-15.9,17.46c-2.96,2.79-7,4.41-11.78,7.3c31.29,0,60.99,0,90.7,0c11.27,0,15.59-4.29,15.62-15.66
			c0.04-14.86,0.02-29.71-0.01-44.57c0-1.77-0.23-3.53-0.36-5.39C191.39,113.46,141.26,113.46,90.6,113.46z M242.19,92.25
			c-0.98-9.33-6.05-14.66-14.58-14.68c-41.22-0.13-82.45-0.12-123.67,0c-7.98,0.02-13.36,6.09-13.52,14.68
			C141.01,92.25,191.58,92.25,242.19,92.25z M147.09,189.31c-4.45,0-9.75-0.17-15.02,0.13c-1.17,0.07-3.08,1.63-3.24,2.71
			c-0.77,5.28-1.32,10.62-1.43,15.96c-0.08,3.9,2.03,6.35,6.19,7.18c6.65,1.32,13.41-3.74,13.49-10.5
			C147.14,199.9,147.09,195.01,147.09,189.31z M158.49,189.6c-0.5,4.47-1.31,8.7-1.31,12.93c0,2.18,1.02,5.85,2.32,6.21
			c2.36,0.66,5.77,0.1,7.84-1.28c6.09-4.07,7.52-10.65,8.22-17.86C169.73,189.6,164.3,189.6,158.49,189.6z M117.99,188.66
			c-2.13,1.31-4.1,2.14-5.58,3.51c-3.77,3.48-7.43,7.11-10.9,10.88c-1.23,1.33-1.79,3.27-2.66,4.94c1.76,0.75,3.56,2.22,5.27,2.13
			C113.8,209.61,119.45,204.14,117.99,188.66z"/>
	</g>
</g>
</svg>
