<?xml version="1.0" encoding="UTF-8"?>
<svg id="Calque_1" data-name="Calque 1" xmlns="http://www.w3.org/2000/svg" viewBox="0 0 1122 1051.33">
  <defs>
    <style>
      .cls-1 {
        fill: #fff;
      }
    </style>
  </defs>
  <path class="cls-1" d="M212.05,405.67c62,75.21,170.38,75.08,232.38,.15,30.42,35.39,68.14,56.26,115.67,56.24,47.19-.02,85.15-19.54,116.24-56.44,30.64,35.49,68.38,56.44,115.94,56.44s85.13-19.56,116.21-56.21c47.98,54.01,106.17,69.52,175.05,44.91v477.27h-88.07v-371.39c0-34.85-15.09-49.81-50.23-49.81H175.8c-34.87,0-50.48,15.43-50.5,49.88v361.15c0,34.13,15.19,49.51,49.07,49.54,112.45,.05,224.88,0,337.34,0h16.99v82.9c-3.78,.35-7.32,.96-10.83,.96-143.57,.05-287.16,.12-430.72,0-31.8-.02-50.45-18.38-50.48-50.16-.17-180.34-.07-360.68-.05-541.03,0-2.7,.4-5.42,.72-9.65,31.76,11.97,63.41,15.56,95.88,7.02,32.08-8.41,57.87-26.46,78.87-51.81l-.02,.02Z"/>
  <path class="cls-1" d="M220.76,570.01h346.44v155.81H220.76v-155.81Zm74.81,89.68c0,10.19-.12,20.38,.02,30.57,.15,8.98,4.97,13.68,13.9,13.82,10.19,.17,20.38-.05,30.57,.1,11.05,.17,16.05-5.22,15.95-16.15-.15-17.61-.42-35.22,.1-52.8,.4-13.18-5.19-18.08-18.28-17.86-47.14,.87-42.07-5.79-42.24,42.32h-.02Zm196.59,1.53c0-9.72,.05-19.44,0-29.16-.07-9.4-4.13-14.76-14.27-14.54-10.63,.22-21.29,.1-31.93,.02-9.94-.05-14.17,5.14-14.05,14.74,.12,10.19,0,20.38,0,30.54,.07,46.87-5.66,41.1,46.15,41.25,8.98,0,13.78-4.8,14-13.7,.25-9.72,.05-19.44,.1-29.16h0Z"/>
  <path class="cls-1" d="M1106.15,257.5h-95.96c-25.99,0-52.01,.27-78-.3-4.03-.1-10.41-3.19-11.57-6.38C890.41,168.17,860.76,85.32,830.12,.02c13.92,0,26.22-.05,38.51,0,20.43,.07,40.86,0,61.28,.4,19.74,.4,34.6,9.57,44.42,26.56,43.21,74.69,86.31,149.43,129.44,224.19,.69,1.19,.99,2.57,2.37,6.33h0Z"/>
  <path class="cls-1" d="M458.85,1.36c-4.82,39.6-9.47,78.15-14.22,116.71-5.17,41.9-10.81,83.74-15.41,125.71-1.14,10.39-4.15,14.1-15.16,14-53.37-.59-106.77-.25-160.14-.3-3.66,0-7.3-.37-12.84-.69,1.48-5.14,2.5-9.45,3.98-13.58,27.6-76.77,55.45-153.43,82.7-230.32,3.31-9.35,7.39-12.98,17.61-12.79,33.41,.67,66.82,.22,100.26,.3,4.06,0,8.09,.57,13.23,.94l-.02,.02Z"/>
  <path class="cls-1" d="M879.56,256.91h-185.56c-10.59-84.98-21.1-169.56-31.93-256.54h31.48c28.34,0,56.68-.37,84.98,.4,4.5,.12,11.43,4.48,12.91,8.46,29.68,81,58.74,162.21,87.9,243.38,.3,.82,.12,1.78,.25,4.3h-.02Z"/>
  <path class="cls-1" d="M466.69,256.59c10.61-85.72,21.1-170.33,31.73-256.17,39.84,0,78.32-.22,116.76,.42,2.99,.05,8.01,5.74,8.48,9.27,7.89,59.87,15.21,119.8,22.63,179.72,2.72,22.01,5.27,44.05,7.99,66.73h-187.59v.02Z"/>
  <path class="cls-1" d="M14.62,256.74c3.22-5.99,5.42-10.34,7.86-14.57C62.58,172.7,103.09,103.45,142.63,33.66,155.67,10.63,173.42-.67,200.11,.17c29.53,.92,59.11,.22,90.69,.22-8.51,23.89-16.17,45.65-23.96,67.34-21.17,58.86-42.66,117.62-63.41,176.63-3.46,9.82-7.82,13.58-18.6,13.45-51.96-.62-103.95-.25-155.93-.3-4.01,0-8.01-.4-14.25-.74l-.02-.05Z"/>
  <path class="cls-1" d="M567.2,752.4v129.3H221.1v-129.3h346.09Zm-211.28,65.61c0-10.19,.15-20.38-.05-30.54-.15-8.8-4.35-13.8-13.7-13.7-11.1,.1-22.21,.05-33.31,0-8.56,0-13.06,4.55-13.16,12.74-.25,20.38-.87,40.81,.57,61.06,.32,4.53,7.99,11.2,13.16,12.17,10.29,1.93,21.19,.59,31.83,.57,9.62-.02,14.57-4.95,14.67-14.52,.1-9.25,0-18.52,0-27.77h0Zm136.27-.35h-.07c0-10.19,.17-20.35-.05-30.54-.2-8.85-4.67-13.58-13.95-13.4-10.63,.2-21.27,.1-31.9,0-8.95-.07-14.15,3.93-14.2,13.13-.15,19.88-.77,39.84,.45,59.65,.3,4.72,6.28,12.09,10.81,13.13,39.57,9.05,48.94,1.46,48.94-37.81v-4.15h-.02Z"/>
  <path class="cls-1" d="M988.08,1041.49h-401.71c-.2-70.14,26.51-126.3,82.28-166.1,70.21-50.11,145.77-54.01,220.31-10.73,65.71,38.16,97.22,98.21,99.15,176.83h-.02Z"/>
  <path class="cls-1" d="M425.54,297.69c-4.18,29.08,8.56,58.96-13.65,85.67-45.01,54.19-128.5,53-169.46-4.35-6.23-8.73-9.3-20.85-10.49-31.78-1.73-15.98-.45-32.27-.45-49.54h194.04Z"/>
  <path class="cls-1" d="M889.23,297.49c0,21.02,.2,40.88-.17,60.74-.07,3.91-1.81,8.16-3.91,11.57-20.97,34.25-51.49,52.8-91.8,53.02-40.31,.22-71.05-17.96-92.3-52.08-2.13-3.44-4.25-7.57-4.35-11.43-.42-20.3-.2-40.61-.2-61.83h192.73Z"/>
  <path class="cls-1" d="M464.14,297.32h193.03c0,21.47,.25,42.22-.22,62.94-.1,3.81-2.89,7.72-5,11.25-40.39,67.62-139.24,68.95-181.08,2.2-3.93-6.26-6.03-14.52-6.41-21.99-.92-17.56-.3-35.17-.3-54.41h-.02Z"/>
  <path class="cls-1" d="M1119.9,297.81c9.69,58.37-14.62,104.49-63.11,120.34-46.97,15.36-101.1-5.89-124.52-49.02-1.93-3.56-3.71-7.74-3.81-11.65-.4-19.46-.17-38.95-.17-59.65h191.62v-.02Z"/>
  <path class="cls-1" d="M.87,297.25H190.17c17.09,57.62-11.72,109.24-68.56,122.79-57.7,13.75-110.72-18.82-120.34-75.31-2.6-15.19-.4-31.19-.4-47.51v.02Z"/>
  <path class="cls-1" d="M887.52,714.34c.45,55.27-43.9,100.78-98.93,101.52-55.87,.74-102.12-44.37-102.66-100.11-.54-54.78,44.47-100.66,99.3-101.23,56.76-.59,101.84,43.4,102.29,99.82Z"/>
  <path class="cls-1" d="M567.25,908.48v19.27H221.06v-19.27h346.19Z"/>
</svg>