<?xml version="1.0" encoding="UTF-8"?>
<svg id="Calque_1" data-name="Calque 1" xmlns="http://www.w3.org/2000/svg" viewBox="0 0 314.33 571.88">
  <defs>
    <style>
      .cls-1 {
        fill: #3c4897;
      }

      .cls-2 {
        fill: #12100b;
      }
    </style>
  </defs>
  <path class="cls-1" d="M66.02,43.41S117.69-14,223.9,3.22c0,0,83.25,20.09,88.99,91.86,0,0,5.74,223.9-5.74,281.31,0,0,2.87,48.8-34.45,83.25,0,0-57.41,63.15-74.63,63.15l20.09-364.56-57.41-109.08s-37.32-5.74-94.73-5.74Z"/>
  <path class="cls-2" d="M108.91,44.45s71.76,20.09,83.25,100.47l-10.05,305.71s-5.74,83.25-100.47,120.56c0,0,91.86,11.48,132.05-60.28,0,0,17.22-37.32,20.09-68.89l10.57-282.75c1.04-27.91-6.4-55.68-22.33-78.63-19.53-28.14-54.06-53.39-113.11-36.19Z"/>
  <g>
    <path class="cls-2" d="M107.46,143.03c-10.61-15.08-28.4-24.99-48.58-24.99C26.36,118.05,0,143.75,0,175.46V445.29c0,31.71,26.36,57.41,58.88,57.41,20.18,0,37.97-9.91,48.58-24.99V143.03Z"/>
    <path class="cls-1" d="M112.9,152.17c.7,2.52,1.32,5.19,1.82,8.02,.06,.36,.1,.74,.1,1.11V459.87s.03,1.22-.15,3.32c-3.3,38.53-61,38.09-63.04-.52-.05-.92-.07-1.85-.07-2.8V160.74s-.26-1.92,.18-5.23c4.4-32.79,52.24-35.26,61.16-3.35Z"/>
  </g>
</svg>