<?xml version="1.0" encoding="utf-8"?>
<!-- Generator: Adobe Illustrator 26.5.0, SVG Export Plug-In . SVG Version: 6.00 Build 0)  -->
<svg version="1.1" id="Calque_1" xmlns="http://www.w3.org/2000/svg" xmlns:xlink="http://www.w3.org/1999/xlink" x="0px" y="0px"
	 viewBox="0 0 252.92 253.18" style="enable-background:new 0 0 252.92 253.18;" xml:space="preserve">
<style type="text/css">
	.st0{fill:#354A98;}
</style>
<g>
	<g>
		<path class="st0" d="M74.4,116.33c-23.58,0-42.76-19.18-42.76-42.76S50.82,30.81,74.4,30.81c23.58,0,42.76,19.18,42.76,42.76
			S97.98,116.33,74.4,116.33z M74.4,41.81c-17.51,0-31.76,14.25-31.76,31.76s14.25,31.76,31.76,31.76
			c17.51,0,31.76-14.25,31.76-31.76S91.91,41.81,74.4,41.81z"/>
	</g>
	<g>
		<path class="st0" d="M170.11,116.33c-23.58,0-42.76-19.18-42.76-42.76s19.18-42.76,42.76-42.76s42.76,19.18,42.76,42.76
			S193.69,116.33,170.11,116.33z M170.11,41.81c-17.51,0-31.76,14.25-31.76,31.76s14.25,31.76,31.76,31.76s31.76-14.25,31.76-31.76
			S187.62,41.81,170.11,41.81z"/>
	</g>
	<g>
		<path class="st0" d="M74.4,216.41c-23.58,0-42.76-19.18-42.76-42.76s19.18-42.76,42.76-42.76c23.58,0,42.76,19.18,42.76,42.76
			S97.98,216.41,74.4,216.41z M74.4,141.89c-17.51,0-31.76,14.25-31.76,31.76s14.25,31.76,31.76,31.76
			c17.51,0,31.76-14.25,31.76-31.76S91.91,141.89,74.4,141.89z"/>
	</g>
	<g>
		<path class="st0" d="M170.11,216.41c-23.58,0-42.76-19.18-42.76-42.76s19.18-42.76,42.76-42.76s42.76,19.18,42.76,42.76
			S193.69,216.41,170.11,216.41z M170.11,141.89c-17.51,0-31.76,14.25-31.76,31.76s14.25,31.76,31.76,31.76s31.76-14.25,31.76-31.76
			S187.62,141.89,170.11,141.89z"/>
	</g>
</g>
</svg>
