<?xml version="1.0" encoding="utf-8"?>
<!-- Generator: Adobe Illustrator 26.5.0, SVG Export Plug-In . SVG Version: 6.00 Build 0)  -->
<svg version="1.1" id="Calque_1" xmlns="http://www.w3.org/2000/svg" xmlns:xlink="http://www.w3.org/1999/xlink" x="0px" y="0px"
	 viewBox="0 0 252.9 253.2" style="enable-background:new 0 0 252.9 253.2;" xml:space="preserve">
<style type="text/css">
	.st0{fill:#FFFFFF;}
	.st1{fill:#3C4899;}
</style>
<g>
	<path class="st0" d="M542.7,37.8v146.4c0,20.8-17,37.8-37.8,37.8H368.1c-20.8,0-37.8-17-37.8-37.8V37.8c0-20.8,17-37.8,37.8-37.8
		l136.8,0C525.7,0,542.7,17,542.7,37.8z"/>
</g>
<g>
	<path class="st1" d="M382.2,119.1c0.7-1.1,1.7-1.4,3-1.4c5.7,0,11.5,0,17.2,0c0.8,0,1.2-0.2,1.7-0.8c2.7-3.4,5.9-6.1,10.3-6.7
		c5.7-0.8,10.6,0.9,14.7,5.1c0.4,0.4,0.9,0.8,1.5,1c4.5,1.6,8.9,3.1,13.4,4.6c3.4,1.1,6.2,2.8,7.5,6.4c3.2-0.9,6.4-1.8,9.5-2.6
		c2.7-0.7,5.5-1.6,8.2-2c3.6-0.5,6.7,1.3,8.2,4.5c1.5,3.2,1,6.7-1.6,9.2c-1.2,1.2-2.7,2.2-4.3,2.8c-10.8,4-21.6,7.8-32.5,11.7
		c-1.3,0.5-2.7,0.7-4,1c-1.2,0-2.4,0-3.5,0c-4.4-0.6-8.3-2.8-12.2-4.8c-2.5-1.3-4.8-2.7-7.3-4c-1.7-1-3.6-1.5-5.6-1.6
		c-0.3,2.2-0.9,2.6-3,2.6c-1.6,0-3.2,0-4.9,0c0,0.4-0.1,0.7-0.1,1c0,2.2-0.6,2.8-2.9,2.8c-3.7,0-7.3,0-11,0c-1.2,0-2.1-0.4-2.6-1.6
		C382.2,137.3,382.2,128.2,382.2,119.1z M406.6,137.3c3.4,0.1,6.3,1.4,9.2,2.9c3.9,2.1,7.8,4.1,11.8,6.1c1.9,1,3.9,1.3,6,1.3
		c2.1,0,4-0.7,5.9-1.4c10.2-3.7,20.5-7.3,30.7-11.1c1.1-0.4,2.3-1.2,3.1-2.2c2.1-2.4,0.6-6-2.6-6.4c-0.8-0.1-1.7,0-2.6,0.2
		c-5.2,1.4-10.3,2.9-15.5,4.3c-0.6,0.2-0.9,0.4-1.1,1.1c-1.4,4.3-5.8,6.6-10.2,5.3c-2-0.6-3.9-1.2-5.8-1.8c-4.2-1.3-8.3-2.6-12.5-4
		c-1.2-0.4-1.7-1.2-1.6-2.2c0.1-0.9,0.7-1.7,1.7-1.9c0.5-0.1,1,0.1,1.5,0.2c3.1,0.9,6.1,1.9,9.2,2.9c2.9,0.9,5.8,1.9,8.7,2.8
		c1.9,0.6,3.8-0.1,4.8-1.8c1-1.6,0.8-3.7-0.8-5c-0.8-0.7-1.9-1.3-2.9-1.7c-5.1-1.8-10.1-3.4-15.2-5.2c-0.7-0.2-1.4-0.8-1.9-1.3
		c-3.2-3.6-7.2-5.1-11.8-4.2c-3.5,0.7-6,3.1-7.9,6c-0.2,0.3-0.2,0.8-0.2,1.2c0,3.6,0,7.3,0,10.9C406.6,134,406.6,135.6,406.6,137.3z
		 M386.4,143.8c2.7,0,5.4,0,8.1,0c0-7.3,0-14.6,0-21.9c-2.7,0-5.4,0-8.1,0C386.4,129.2,386.4,136.5,386.4,143.8z M398.8,121.9
		c0,6.1,0,12.1,0,18.1c1.2,0,2.4,0,3.5,0c0-6.1,0-12,0-18.1C401.1,121.9,400,121.9,398.8,121.9z"/>
	<path class="st1" d="M464.1,59c0.4-2.2,0.9-2.6,3.1-2.6c1.6,0,3.2,0,4.9,0c0-0.6,0-1.2,0-1.7c0.1-1.4,0.8-2.1,2.2-2.1
		c4.1,0,8.1,0,12.2,0c1.3,0,2.2,0.8,2.2,2.1c0,8.7,0,17.4,0,26.1c0,1.4-0.9,2.1-2.5,2.1c-5.9,0-11.7,0-17.6,0c-0.9,0-1.4,0.2-2,1
		c-2.6,3.4-5.8,5.8-10.1,6.6c-0.8,0.1-1.6,0.3-2.4,0.2c-1.1-0.1-1.8,0.3-2.6,1.1c-6.5,6.5-13,13-19.4,19.5c-1.5,1.5-2.5,1.5-4.1,0
		c-12.8-12.8-25.6-25.6-38.3-38.3c-1.7-1.7-1.7-2.5,0-4.2c7.3-7.3,14.6-14.6,21.9-21.9c1.6-1.6,2.5-1.6,4.2,0
		c1.9,1.9,3.9,3.9,5.8,5.8c0.4,0.5,0.8,0.6,1.4,0.3c2.8-1.1,5.7-2.1,8.6-3.1c4.4-1.6,8.8-1.5,13,0.5c4.6,2.2,9.1,4.6,13.6,7
		C460,58.2,461.9,59,464.1,59z M425.4,56.4c2.6,2.6,5.1,5.1,7.6,7.6c0.2,0.2,0.5,0.3,0.8,0.4c3.9,1.2,7.7,2.5,11.6,3.7
		c0.9,0.3,1.8,0.5,2.7,0.9c1.1,0.4,1.5,1.5,1.2,2.6c-0.3,1-1.3,1.6-2.4,1.4c-0.3-0.1-0.7-0.2-1-0.3c-5.9-1.9-11.7-3.7-17.6-5.6
		c-1.9-0.6-3.7,0.1-4.7,1.7c-1,1.6-0.8,3.7,0.6,5c0.8,0.7,1.8,1.3,2.8,1.7c5.1,1.8,10.2,3.5,15.3,5.3c0.8,0.3,1.5,0.8,2,1.5
		c3.3,3.6,7.3,5.1,12.1,4.1c3.4-0.7,5.7-3.1,7.6-5.9c0.2-0.2,0.2-0.6,0.2-0.9c0-5.1,0-10.2,0-15.3c0-0.7-0.2-0.9-0.9-1
		c-2.5-0.2-4.8-1-7-2.1c-4.4-2.4-8.8-4.7-13.3-6.9c-3-1.5-6.3-1.7-9.5-0.6C430.8,54.3,428.2,55.4,425.4,56.4z M401.3,78.3
		c7.1,7.1,14.1,14.1,21.1,21.1c5-3.2,10.2-3.2,15.2,0c1.6-1.6,3.1-3.2,4.7-4.7c-1.9-2.9-2.8-6.2-2.2-9.8c0-0.2-0.3-0.7-0.6-0.8
		c-1.5-0.6-2.9-1-4.4-1.5c-0.6-0.2-1.2-0.4-1.9-0.6c-0.2,0.4-0.3,0.8-0.4,1.1c-2.2,5.8-8.6,9-14.5,7.2c-5.1-1.6-8.5-6.2-8.4-11.5
		c0.1-5.4,3.6-9.8,8.8-11.3c0.5-0.1,1-0.6,1.3-1c1.2-1.7,2.7-2.9,4.7-3.5c0.3-0.1,0.6-0.2,0.7-0.2c-1.4-1.4-2.9-2.9-4.3-4.3
		c-5,3.2-10.2,3.1-15.1,0c-1.6,1.6-3.2,3.2-4.7,4.7C404.4,68.2,404.4,73.3,401.3,78.3z M484.4,78.7c0-7.4,0-14.6,0-21.9
		c-2.7,0-5.4,0-8.1,0c0,7.3,0,14.6,0,21.9C479,78.7,481.6,78.7,484.4,78.7z M418.9,71.9c-3.2,1-5.3,4.9-4.6,8.5
		c0.8,3.8,4.4,6.6,8.2,6.2c3.5-0.4,6.7-3.3,6.7-6.1C424.5,79.2,419.9,77.7,418.9,71.9z M468.4,78.7c1.2,0,2.4,0,3.6,0c0-6,0-12,0-18
		c-1.2,0-2.4,0-3.6,0C468.4,66.7,468.4,72.6,468.4,78.7z M434.5,102.5c-2.8-1.7-6.6-1.7-8.9,0c1.5,1.5,3.1,3.1,4.5,4.5
		C431.5,105.6,433,104,434.5,102.5z M398.1,75.4c1.8-2.6,1.8-7.2-0.1-9.3c-0.7,0.8-1.5,1.6-2.2,2.3c-0.8,0.8-1.6,1.5-2.5,2.3
		c1.6,1.6,3.1,3,4.5,4.5C397.9,75.2,398,75.3,398.1,75.4z M418.2,55.2c-0.2-0.2-0.3-0.4-0.5-0.5c-1.4-1.4-2.7-2.7-4.2-4.2
		c-0.8,0.9-1.5,1.6-2.3,2.4c-0.8,0.8-1.6,1.5-2.4,2.3C411.3,57,415.8,57,418.2,55.2z M447.7,89.6c-1.2-0.7-2.3-1.3-3.8-2
		c0.5,1.6,0.9,2.9,1.4,4.3C446.2,91,446.9,90.3,447.7,89.6z"/>
	<path class="st0" d="M416,125.3c1.1,0,2.1,0.9,2.1,2c0,1.1-1,2.1-2.1,2.1c-1.1,0-2-1-2-2.1C414,126.2,414.8,125.3,416,125.3z"/>
	<path class="st0" d="M456.8,73.3c0,1.1-0.9,2-2.1,2c-1.1,0-2.1-0.9-2-2.1c0-1.2,1-2.1,2.2-2C456,71.2,456.8,72.1,456.8,73.3z"/>
</g>
</svg>
