<?xml version="1.0" encoding="UTF-8"?>
<svg id="Calque_1" data-name="Calque 1" xmlns="http://www.w3.org/2000/svg" viewBox="0 0 1125 1125">
  <defs>
    <style>
      .cls-1 {
        fill: #818282;
      }

      .cls-2 {
        fill: gray;
      }
    </style>
  </defs>
  <g>
    <path class="cls-2" d="M775.2,1072.8c28.73-10.06,52.14-42.4,75.35-61.09,18.4-14.82,36.3-25.83,55.8-33.58,7.7-9.99,15.45-20.69,24.03-32.42,3.72-5.09,7.66-9.86,11.72-14.45-86.68-107.74-222.92-177.45-376.54-177.45s-296.3,72.98-382.61,185.08c33.39,20.23,55.5,49.05,82.5,76.43,11.16,11.31,23.3,21.58,35.91,31.23,2.52,.96,5.11,1.86,7.52,2.9,17.01,7.35,32.76,16.02,47.07,26.94h411.29c2.62-1.22,5.07-2.58,7.95-3.59Z"/>
    <circle class="cls-2" cx="557.91" cy="531.89" r="176.01"/>
  </g>
  <path class="cls-1" d="M562.5,1125C252.34,1125,0,872.66,0,562.5S252.34,0,562.5,0s562.5,252.34,562.5,562.5-252.34,562.5-562.5,562.5Zm0-1071.37c-280.6,0-508.87,228.28-508.87,508.87s228.28,508.87,508.87,508.87,508.87-228.28,508.87-508.87S843.1,53.63,562.5,53.63Z"/>
</svg>