<?xml version="1.0" encoding="utf-8"?>
<!-- Generator: Adobe Illustrator 26.5.0, SVG Export Plug-In . SVG Version: 6.00 Build 0)  -->
<svg version="1.1" id="Calque_1" xmlns="http://www.w3.org/2000/svg" xmlns:xlink="http://www.w3.org/1999/xlink" x="0px" y="0px"
	 viewBox="0 0 252.9 253.2" style="enable-background:new 0 0 252.9 253.2;" xml:space="preserve">
<style type="text/css">
	.st0{fill:#FFFFFF;}
	.st1{fill:#3C4899;}
</style>
<g>
	<path class="st0" d="M542.7,37.8v146.4c0,20.8-17,37.8-37.8,37.8H368.1c-20.8,0-37.8-17-37.8-37.8V37.8c0-20.8,17-37.8,37.8-37.8
		l136.8,0C525.7,0,542.7,17,542.7,37.8z"/>
</g>
<g>
	<path class="st1" d="M450,70c-1.2,0-2.1,0-3.2,0c0-3.3,0-6.4,0-9.8c-15.6,0-31,0-46.5,0c0,27.1,0,54.2,0,81.5c16.5,0,33,0,49.6,0
		c0,3.3,0.2,6.5-0.1,9.6c-0.3,2.6-2.9,4.6-5.8,4.6c-13.7,0.1-27.3,0.1-41,0c-3.7,0-6.1-2.6-6.1-6.3c0-31.8,0-63.5,0-95.3
		c0-3.7,2.4-6.3,6.1-6.3c13.6-0.1,27.2-0.1,40.8,0c3.7,0,6.1,2.6,6.2,6.3C450.1,59.4,450,64.6,450,70z M423.4,151.9c0.5,0,1,0,1.5,0
		c2-0.1,3.1-1.1,3.2-2.9c0.1-1.8-1.2-3-3.2-3.1c-0.5,0-1,0-1.5,0c-3.1,0-4.6,1-4.6,3C418.8,151,420.2,151.9,423.4,151.9z M432.3,54
		c0.1-0.2,0.1-0.4,0.2-0.6c-0.4-0.2-0.7-0.6-1.1-0.6c-5.2,0-10.5,0-15.7,0c-0.4,0-0.8,0.5-1.2,0.8c0.1,0.1,0.1,0.3,0.2,0.4
		C420.5,54,426.4,54,432.3,54z"/>
	<path class="st1" d="M462.6,93.5c0,11.1,0,22,0,33c-20.3,0-40.4,0-60.7,0c0-0.9,0-1.8,0-2.9c17.5,0,35,0,52.4,0
		c0.8-3.7,1.4-4.3,5.2-4.9c0-5.7,0-11.4,0-17.1c-4.1-1.2-4.5-1.6-5.1-5c-17.4,0-34.9,0-52.6,0c0-1.1,0-2,0-3
		C422,93.5,442.2,93.5,462.6,93.5z"/>
	<path class="st1" d="M415.9,110.1c0-7.1,5.4-12.9,12.2-12.9c6.6,0,12.2,5.9,12.2,13c0,7-5.5,12.7-12.1,12.8
		C421.4,123,415.9,117.2,415.9,110.1z M419.6,111.4c0.4,0.2,0.8,0.5,1.2,0.7c0.7,0.6,1.5,1.2,2,2c1.9,2.8,5,3.9,8.1,2.9
		c1.7-0.5,2.3-1.4,1.7-3.1c-3.9,2.1-6.5,1.7-7.7-1.1c1.9-1.1,4.7,1,6.3-1.3c0-0.2-0.1-0.5-0.1-0.7c-2.4,0-4.7,0-7.1,0
		c0-0.2,0-0.4,0-0.6c2.2,0,4.4,0.1,6.6,0c0.6,0,1.1-0.5,1.7-0.8c-0.1-0.3-0.2-0.5-0.3-0.8c-2.5,0-5,0-7.7,0c2-3.6,4.5-3.9,8.6-1.4
		c1.3-1.5,0.4-2.3-1-3c-3.4-1.7-7.3-0.4-9.2,2.9c-0.3,0.5-0.6,1.4-1,1.5c-2.7,0.8-0.8,1.4-0.6,1.5
		C420.6,110.4,420.1,110.9,419.6,111.4z"/>
	<path class="st1" d="M419.5,77.5c4.6-2.7,8.9-5.1,13.4-7.7c0.1,1.2,0.2,2.2,0.3,3.3c8.4,0,16.7,0,25.2,0c0,3,0,5.8,0,8.8
		c-8.4,0-16.8,0-25.2,0c-0.1,1.2-0.1,2.1-0.2,3.3C428.5,82.7,424.1,80.2,419.5,77.5z"/>
	<path class="st1" d="M466.8,138.9c-8.4,0-16.7,0-25.1,0c0-3,0-5.8,0-8.8c8.4,0,16.7,0,25.1,0c0.1-1.1,0.2-2,0.3-3.3
		c4.5,2.6,8.8,5,13.4,7.7c-4.6,2.6-8.8,5.1-13.4,7.7C467,141.1,466.9,140.2,466.8,138.9z"/>
	<path class="st1" d="M468.6,87.6c-22.5,0-44.6,0-66.6,0c-0.1,0-0.1-0.3-0.3-0.8c22.7,0,45.2,0,68.1,0c0,11.2,0,22.5,0,33.9
		c-0.4,0-0.8,0-1.1,0C468.6,109.8,468.6,98.9,468.6,87.6z"/>
	<path class="st1" d="M401.8,88.8c21.7,0,43.4,0,65.2,0c0,11.3,0,22.6,0,33.8c-0.2,0-0.4,0.1-0.7,0.1c-0.1-0.7-0.4-1.3-0.4-2
		c0-9.3,0-18.6,0-28c0-0.8,0-1.7,0-2.8c-1.1,0-2,0-2.9,0c-19.7,0-39.4,0-59.1,0c-0.8,0-1.6-0.2-2.4-0.3
		C401.7,89.4,401.8,89.1,401.8,88.8z"/>
	<path class="st1" d="M401.8,91.3c21,0,42,0,63.2,0c0,11.1,0,22.2,0,33.3c-0.4,0-0.7,0-1.1,0c0-10.6,0-21.3,0-32.2
		c-7.2,0-14.1,0-21,0c-6.9,0-13.9,0-20.8,0c-6.8,0-13.6,0.1-20.5-0.1C401.8,92,401.8,91.7,401.8,91.3z"/>
	<path class="st1" d="M410,109.8c0,1.6-1.3,2.8-3,2.8c-1.5,0-2.8-1.3-2.9-2.8c0-1.5,1.4-3,2.9-3C408.6,106.8,410,108.3,410,109.8z"
		/>
	<path class="st1" d="M451.8,109.7c0.1,1.6-1.2,2.9-2.8,2.9c-1.8,0-2.7-1-2.9-2.7c-0.1-1.6,1.1-3,2.7-3.1
		C450.3,106.7,451.8,108.1,451.8,109.7z"/>
</g>
</svg>
