<?xml version="1.0" encoding="utf-8"?>
<!-- Generator: Adobe Illustrator 26.5.0, SVG Export Plug-In . SVG Version: 6.00 Build 0)  -->
<svg version="1.1" id="Calque_1" xmlns="http://www.w3.org/2000/svg" xmlns:xlink="http://www.w3.org/1999/xlink" x="0px" y="0px"
	 viewBox="0 0 252.92 253.18" style="enable-background:new 0 0 252.92 253.18;" xml:space="preserve">
<style type="text/css">
	.st0{fill:#394998;}
</style>
<g>
	<path class="st0" d="M93.54,118.57c19.16,0,38.31,0,57.47,0c4.27,0,6.69,2.35,6.69,6.58c0.01,21.85,0.02,43.71,0.01,65.56
		c0,4.7-2.3,6.95-7,6.95c-24.68,0-49.37,0-74.05,0c-13.49,0-26.99,0-40.48,0c-4.55,0-6.9-2.36-6.9-6.92c0-21.81,0-43.62,0-65.43
		c0-4.41,2.35-6.73,6.8-6.73C55.23,118.57,74.38,118.57,93.54,118.57z M108.7,151.09c0-5.09,0-10.06,0-15.02c-1.86,0-3.62,0-5.51,0
		c0,2.04,0,3.96,0,5.88c-1.18-1.64-2.09-3.35-3.06-5.03c-0.22-0.38-0.61-0.9-0.95-0.92c-1.85-0.09-3.71-0.04-5.63-0.04
		c0,5.11,0,10.07,0,15.02c1.86,0,3.61,0,5.47,0c0-2.12,0-4.13,0-6.14c1.2,1.77,2.15,3.6,3.16,5.4c0.2,0.36,0.65,0.79,1,0.81
		C105,151.13,106.82,151.09,108.7,151.09z M61.49,150.97c2.97,0,5.8,0.12,8.6-0.06c1.2-0.08,2.46-0.6,3.5-1.24
		c1.63-1.01,2.02-3.36,0.84-4.82c-0.62-0.77-1.58-1.28-2.09-1.67c0.63-0.87,1.64-1.74,1.97-2.82c0.53-1.72-0.75-3.54-2.96-3.87
		c-3.23-0.48-6.53-0.51-9.87-0.73C61.49,141.06,61.49,145.99,61.49,150.97z M126.25,151.08c-1.31-2.24-2.42-4.3-3.68-6.26
		c-0.66-1.03-0.61-1.83-0.01-2.84c1.12-1.89,2.11-3.86,3.28-6.03c-1.91,0-3.55,0.07-5.18-0.02c-0.96-0.05-1.38,0.33-1.7,1.17
		c-0.54,1.43-1.19,2.81-1.79,4.21c-0.1-0.03-0.2-0.05-0.31-0.08c0-1.72,0-3.44,0-5.18c-1.89,0-3.64,0-5.44,0c0,5.04,0,9.97,0,14.95
		c1.84,0,3.6,0,5.49,0c0-1.89,0-3.69,0-5.48c1.01,1.53,1.76,3.13,2.57,4.69c0.18,0.34,0.54,0.82,0.84,0.83
		C122.22,151.12,124.11,151.08,126.25,151.08z M75.97,151.1c1.81,0,3.46-0.04,5.1,0.02c0.81,0.03,1.25-0.22,1.24-1.07
		c-0.01-1.17,0.64-1.47,1.68-1.32c0.42,0.06,0.85,0.01,1.31,0.01c0.13,0.64,0.17,1.17,0.36,1.64c0.12,0.29,0.47,0.67,0.72,0.68
		c1.77,0.06,3.54,0.03,5.38,0.03c-0.01-0.29,0.01-0.46-0.04-0.61c-1.31-4.6-2.62-9.19-3.99-13.77c-0.09-0.32-0.64-0.7-0.98-0.71
		c-1.87-0.07-3.74-0.07-5.61,0.01c-0.36,0.02-0.91,0.45-1.03,0.8c-0.65,1.98-1.21,3.99-1.78,6C77.56,145.5,76.8,148.21,75.97,151.1z
		 M59.16,177.16c1.44,0,2.74-0.01,4.04,0c1.19,0.01,1.76-0.6,1.78-1.76c0.01-1,0.01-2,0-3c-0.02-1.17-0.64-1.75-1.8-1.76
		c-1.39-0.01-2.78-0.06-4.17,0.03c-0.45,0.03-1.21,0.4-1.25,0.68c-0.11,0.91,0.71,0.77,1.29,0.78c1.46,0.02,2.91,0.01,4.35,0.01
		c0,1.29,0,2.36,0,3.55c-1.38,0-2.67-0.01-3.97,0c-0.84,0.01-1.66,0.22-1.7,1.22c-0.07,1.72-0.02,3.44-0.02,5.27
		c2.04,0,3.94,0.01,5.85-0.01c0.57,0,1.4,0.16,1.3-0.76c-0.03-0.27-0.81-0.63-1.27-0.66c-1.45-0.08-2.91-0.03-4.43-0.03
		C59.16,179.49,59.16,178.42,59.16,177.16z M117.08,175.71c-1.44,0-2.78-0.01-4.12,0c-0.89,0.01-1.59,0.39-1.63,1.34
		c-0.07,1.68-0.02,3.36-0.02,5.16c2.1,0,4.05,0.04,5.99-0.03c0.43-0.02,0.85-0.47,1.27-0.72c-0.44-0.23-0.86-0.64-1.31-0.67
		c-1.46-0.09-2.92-0.03-4.38-0.03c0-1.3,0-2.4,0-3.6c1.4,0,2.7,0,4,0c1.1,0,1.71-0.53,1.73-1.66c0.01-1.04,0.01-2.09,0-3.13
		c-0.01-1.11-0.59-1.69-1.7-1.71c-1.48-0.02-2.96-0.06-4.43,0.03c-0.4,0.02-0.78,0.46-1.16,0.71c0.38,0.25,0.75,0.69,1.14,0.72
		c1.51,0.08,3.02,0.03,4.61,0.03C117.08,173.35,117.08,174.42,117.08,175.71z M74.06,180.76c-1.59,0-3.15-0.04-4.7,0.03
		c-0.33,0.01-0.64,0.41-0.96,0.62c0.32,0.26,0.63,0.74,0.96,0.75c1.61,0.08,3.23,0.12,4.83-0.03c0.5-0.05,1.35-0.69,1.36-1.09
		c0.12-3.07,0.13-6.15,0-9.22c-0.02-0.42-0.99-1.07-1.58-1.14c-1.42-0.17-2.87-0.11-4.3-0.02c-0.43,0.03-0.84,0.47-1.26,0.73
		c0.43,0.25,0.85,0.68,1.29,0.71c1.46,0.09,2.93,0.03,4.5,0.03c0,0.86-0.03,1.55,0.01,2.23c0.05,0.93-0.3,1.39-1.29,1.32
		c-0.65-0.05-1.32-0.09-1.95,0.03c-0.41,0.08-0.75,0.48-1.13,0.74c0.36,0.23,0.71,0.47,1.07,0.67c0.1,0.06,0.26,0.01,0.39,0.01
		c2.97,0.06,2.96-0.66,2.89,3.11C74.17,180.36,74.13,180.44,74.06,180.76z M127.66,180.76c-1.47,0-2.94-0.05-4.41,0.03
		c-0.41,0.02-0.81,0.42-1.21,0.64c0.42,0.26,0.82,0.7,1.25,0.73c1.21,0.1,2.43,0.05,3.65,0.05c2.04,0,2.41-0.33,2.36-2.32
		c-0.03-1.19-0.33-2.38-0.33-3.57c0.01-1.32,0.26-2.65,0.33-3.97c0.06-1.13-0.58-1.68-1.69-1.69c-1.44-0.01-2.87-0.06-4.3,0.03
		c-0.44,0.03-0.85,0.47-1.27,0.72c0.43,0.25,0.85,0.68,1.29,0.71c1.46,0.09,2.93,0.03,4.51,0.03c0,0.86-0.03,1.55,0.01,2.23
		c0.06,1.03-0.4,1.41-1.4,1.33c-0.73-0.06-1.49-0.06-2.21,0.05c-0.27,0.04-0.59,0.44-0.67,0.74c-0.04,0.15,0.37,0.49,0.63,0.63
		c0.21,0.11,0.51,0.04,0.77,0.04c3.07,0.04,3.08,0.04,2.85,3.12C127.81,180.36,127.76,180.44,127.66,180.76z M49.81,180.76
		c-0.75,0-1.37-0.08-1.95,0.03c-0.32,0.06-0.58,0.45-0.87,0.69c0.3,0.24,0.58,0.64,0.9,0.68c0.86,0.1,1.73,0.05,2.6,0.05
		c3.88,0,3.88,0,3.78-3.89c0-0.13,0.05-0.29-0.01-0.38c-0.21-0.32-0.46-0.62-0.69-0.92c-0.26,0.32-0.7,0.62-0.74,0.97
		c-0.11,0.88-0.04,1.79-0.04,2.69c-0.56,0-0.94,0-1.47,0c0-3.35,0-6.63,0-10.02c-1.28,0-2.4-0.05-3.51,0.04
		c-0.29,0.02-0.55,0.49-0.82,0.76c0.31,0.23,0.59,0.6,0.93,0.66c0.61,0.11,1.25,0.03,1.9,0.03
		C49.81,175.11,49.81,177.83,49.81,180.76z M104.99,180.69c0-3.34,0-6.62,0-10.06c-1.27,0-2.4-0.06-3.51,0.04
		c-0.31,0.03-0.59,0.48-0.88,0.74c0.29,0.25,0.56,0.65,0.89,0.71c0.61,0.11,1.26,0.03,1.94,0.03c0,2.94,0,5.7,0,8.61
		c-0.67,0-1.29-0.08-1.86,0.03c-0.34,0.06-0.63,0.42-0.95,0.65c0.29,0.25,0.57,0.72,0.86,0.73c1.87,0.06,3.74,0.07,5.6-0.02
		c0.28-0.01,0.75-0.57,0.78-0.9c0.1-1.08,0.1-2.18,0.01-3.25c-0.03-0.33-0.48-0.63-0.74-0.95c-0.22,0.31-0.6,0.6-0.63,0.93
		c-0.09,0.89-0.03,1.79-0.03,2.71C105.89,180.69,105.52,180.69,104.99,180.69z M81.25,176.88c0-1.8,0.03-3.54-0.03-5.26
		c-0.01-0.32-0.43-0.62-0.66-0.93c-0.25,0.29-0.7,0.58-0.71,0.88c-0.06,2.25-0.03,4.5-0.03,6.94c1.48,0,2.84,0,4.34,0
		c0,1-0.07,1.83,0.03,2.64c0.05,0.36,0.44,0.68,0.68,1.02c0.27-0.36,0.57-0.7,0.78-1.08c0.09-0.16,0.01-0.43,0.02-0.64
		c0.03-0.83-0.3-1.72,0.55-2.4c0.12-0.1-0.04-0.61-0.13-0.91c-0.12-0.43-0.37-0.85-0.41-1.29c-0.07-0.91,0.04-1.84-0.08-2.73
		c-0.05-0.4-0.47-0.76-0.73-1.14c-0.24,0.39-0.65,0.77-0.68,1.17c-0.09,1.24-0.03,2.49-0.03,3.74
		C83.11,176.88,82.26,176.88,81.25,176.88z M134.94,176.88c0-0.67,0-1.19,0-1.7c0-1.22,0.04-2.44-0.04-3.65
		c-0.02-0.29-0.42-0.56-0.64-0.84c-0.26,0.23-0.73,0.46-0.74,0.7c-0.06,2.33-0.03,4.66-0.03,7.09c1.53,0,2.86,0,4.35,0
		c0,0.97-0.07,1.84,0.03,2.69c0.04,0.36,0.45,0.67,0.7,1c0.23-0.34,0.59-0.65,0.68-1.03c0.24-1.04-0.42-2.26,0.67-3.16
		c0.1-0.08-0.07-0.54-0.16-0.81c-0.14-0.46-0.42-0.91-0.46-1.37c-0.07-0.91,0.04-1.83-0.05-2.74c-0.04-0.38-0.41-0.73-0.63-1.09
		c-0.26,0.36-0.72,0.71-0.75,1.1c-0.1,1.24-0.04,2.5-0.04,3.82C136.82,176.88,135.97,176.88,134.94,176.88z"/>
	<path class="st0" d="M109.9,113.27c0.99-11.14,1.96-22.17,2.93-33.19c0.12-0.07,0.23-0.13,0.35-0.2c1.07,1.12,2.12,2.26,3.2,3.36
		c1.37,1.4,2.8,2.74,4.14,4.17c0.64,0.67,1.16,0.77,2.02,0.34c8.74-4.25,17.88-7.26,27.51-8.69c9.42-1.4,18.75-1.16,27.88,1.85
		c11.73,3.87,20.61,11.42,27.22,21.68c2.37,3.68,4.23,7.69,6.31,11.55c0.16,0.29,0.22,0.63,0.35,1.01
		c-2.78-0.27-5.45-0.57-8.13-0.77c-6.54-0.5-13.05-0.14-19.48,1.2c-0.99,0.21-1.38-0.03-1.89-0.9c-2-3.45-3.89-7.02-6.28-10.19
		c-4.75-6.28-11.25-9.44-19.15-9.52c-8.06-0.08-15.45,2.54-22.88,5.83c3.15,4.18,6.21,8.25,9.41,12.49
		C132.17,113.27,121.15,113.27,109.9,113.27z"/>
	<path class="st0" d="M199.4,118.6c7.94,0.02,15.84,0.52,23.54,2.65c2.04,0.56,4.01,1.43,5.93,2.34c1.78,0.85,2.68,2.27,2.59,4.41
		c-0.15,3.26-0.12,6.53-0.01,9.79c0.06,1.8-0.6,3.18-2.12,3.86c-2.73,1.21-5.49,2.56-8.37,3.16c-14.85,3.08-29.74,3.1-44.55-0.34
		c-2.26-0.52-4.42-1.55-6.54-2.53c-1.75-0.81-2.6-2.22-2.52-4.3c0.14-3.39,0.08-6.79,0.02-10.19c-0.02-1.41,0.44-2.56,1.61-3.21
		c1.82-1,3.68-2.01,5.64-2.62c7.21-2.24,14.67-2.83,22.18-3.01C197.66,118.58,198.53,118.6,199.4,118.6z M200.33,120.67
		c-7.81,0.03-14.62,0.54-21.29,2.16c-2.47,0.6-4.9,1.51-7.22,2.56c-1.65,0.75-1.62,1.87-0.05,2.75c1.24,0.7,2.57,1.38,3.94,1.67
		c4.42,0.94,8.84,1.98,13.32,2.47c10.76,1.2,21.47,0.71,32.02-1.9c2.05-0.51,4.05-1.33,5.95-2.26c1.54-0.75,1.54-1.88,0.04-2.71
		c-1.39-0.77-2.9-1.41-4.43-1.85C215.02,121.37,207.23,120.75,200.33,120.67z"/>
	<path class="st0" d="M167.37,178.24c2.24,2.9,5.22,3.82,8.2,4.63c9.34,2.54,18.89,2.95,28.5,2.63c7.11-0.24,14.16-0.96,20.97-3.2
		c2.35-0.78,4.66-1.7,6.32-4c0,3.94,0.07,7.66-0.04,11.37c-0.04,1.35-1.12,2.21-2.26,2.85c-3.34,1.9-6.99,2.9-10.74,3.53
		c-13.62,2.29-27.22,2.33-40.74-0.65c-2.64-0.58-5.19-1.71-7.69-2.8c-1.81-0.79-2.65-2.29-2.55-4.42
		C167.48,184.99,167.37,181.77,167.37,178.24z"/>
	<path class="st0" d="M167.37,144.43c1.81,2.5,4.19,3.4,6.59,4.18c6.69,2.15,13.61,2.88,20.58,3.13c9.2,0.33,18.36-0.09,27.36-2.28
		c1.05-0.26,2.11-0.54,3.13-0.91c2.31-0.85,4.65-1.69,6.38-4.13c0,3.27-0.21,6.18,0.06,9.05c0.31,3.29-1.29,5-4.03,6.19
		c-4.12,1.79-8.45,2.69-12.86,3.24c-12.35,1.56-24.67,1.51-36.86-1.21c-2.64-0.59-5.19-1.7-7.7-2.77c-1.86-0.79-2.79-2.27-2.68-4.47
		C167.49,151.24,167.37,148.02,167.37,144.43z"/>
	<path class="st0" d="M167.37,161.39c2.22,2.79,5.06,3.7,7.91,4.51c8.33,2.35,16.88,2.88,25.48,2.81c7.37-0.07,14.7-0.65,21.85-2.57
		c1.76-0.47,3.5-1.09,5.14-1.87c1.3-0.62,2.42-1.62,3.6-2.44c0,0.06,0.05,0.37,0.05,0.68c0.01,3.09-0.04,6.18,0.03,9.27
		c0.03,1.51-0.49,2.71-1.75,3.4c-1.74,0.95-3.53,1.91-5.42,2.5c-7.03,2.23-14.32,2.85-21.65,3.03c-8.9,0.22-17.76-0.23-26.42-2.54
		c-2.17-0.58-4.26-1.5-6.3-2.45c-1.79-0.83-2.69-2.27-2.57-4.41c0.15-2.78,0.04-5.57,0.04-8.36
		C167.37,162.55,167.37,162.14,167.37,161.39z"/>
	<path class="st0" d="M67.04,147.52c0-0.96,0-1.55,0-2.5c0.67,0.2,1.3,0.31,1.83,0.61c0.18,0.1,0.22,0.91,0.06,1.02
		C68.43,147.02,67.81,147.2,67.04,147.52z"/>
	<path class="st0" d="M67.03,141.73c0-0.94,0-1.48,0-2.3c0.66,0.25,1.21,0.37,1.65,0.66c0.16,0.1,0.18,0.8,0.04,0.9
		C68.28,141.29,67.73,141.44,67.03,141.73z"/>
	<path class="st0" d="M84.06,142.16c0.19,1,0.38,2,0.6,3.1c-0.49,0.03-0.85,0.05-1.45,0.09c0.22-1.16,0.42-2.18,0.62-3.2
		C83.9,142.15,83.98,142.16,84.06,142.16z"/>
</g>
</svg>
