<?xml version="1.0" encoding="utf-8"?>
<!-- Generator: Adobe Illustrator 26.5.0, SVG Export Plug-In . SVG Version: 6.00 Build 0)  -->
<svg version="1.1" id="Calque_1" xmlns="http://www.w3.org/2000/svg" xmlns:xlink="http://www.w3.org/1999/xlink" x="0px" y="0px"
	 viewBox="0 0 252.9 253.2" style="enable-background:new 0 0 252.9 253.2;" xml:space="preserve">
<style type="text/css">
	.st0{fill:#FFFFFF;}
	.st1{fill:#3C4899;}
</style>
<g>
	<path class="st0" d="M542.7,37.8v146.4c0,20.8-17,37.8-37.8,37.8H368.1c-20.8,0-37.8-17-37.8-37.8V37.8c0-20.8,17-37.8,37.8-37.8
		l136.8,0C525.7,0,542.7,17,542.7,37.8z"/>
</g>
<g>
	<path class="st1" d="M414.3,93c10.5,0,21,0,31.5,0c2.3,0,3.7,1.3,3.7,3.6c0,12,0,24,0,36c0,2.6-1.3,3.8-3.8,3.8
		c-13.5,0-27.1,0-40.6,0c-7.4,0-14.8,0-22.2,0c-2.5,0-3.8-1.3-3.8-3.8c0-12,0-23.9,0-35.9c0-2.4,1.3-3.7,3.7-3.7
		C393.2,93,403.8,93,414.3,93z M422.6,110.9c0-2.8,0-5.5,0-8.2c-1,0-2,0-3,0c0,1.1,0,2.2,0,3.2c-0.7-0.9-1.1-1.8-1.7-2.8
		c-0.1-0.2-0.3-0.5-0.5-0.5c-1,0-2,0-3.1,0c0,2.8,0,5.5,0,8.2c1,0,2,0,3,0c0-1.2,0-2.3,0-3.4c0.7,1,1.2,2,1.7,3
		c0.1,0.2,0.4,0.4,0.5,0.4C420.6,110.9,421.6,110.9,422.6,110.9z M396.7,110.8c1.6,0,3.2,0.1,4.7,0c0.7,0,1.4-0.3,1.9-0.7
		c0.9-0.6,1.1-1.8,0.5-2.6c-0.3-0.4-0.9-0.7-1.1-0.9c0.3-0.5,0.9-1,1.1-1.5c0.3-0.9-0.4-1.9-1.6-2.1c-1.8-0.3-3.6-0.3-5.4-0.4
		C396.7,105.4,396.7,108.1,396.7,110.8z M432.2,110.9c-0.7-1.2-1.3-2.4-2-3.4c-0.4-0.6-0.3-1,0-1.6c0.6-1,1.2-2.1,1.8-3.3
		c-1,0-1.9,0-2.8,0c-0.5,0-0.8,0.2-0.9,0.6c-0.3,0.8-0.7,1.5-1,2.3c-0.1,0-0.1,0-0.2,0c0-0.9,0-1.9,0-2.8c-1,0-2,0-3,0
		c0,2.8,0,5.5,0,8.2c1,0,2,0,3,0c0-1,0-2,0-3c0.6,0.8,1,1.7,1.4,2.6c0.1,0.2,0.3,0.5,0.5,0.5C430,110.9,431.1,110.9,432.2,110.9z
		 M404.6,110.9c1,0,1.9,0,2.8,0c0.4,0,0.7-0.1,0.7-0.6c0-0.6,0.4-0.8,0.9-0.7c0.2,0,0.5,0,0.7,0c0.1,0.4,0.1,0.6,0.2,0.9
		c0.1,0.2,0.3,0.4,0.4,0.4c1,0,1.9,0,3,0c0-0.2,0-0.3,0-0.3c-0.7-2.5-1.4-5-2.2-7.6c-0.1-0.2-0.3-0.4-0.5-0.4c-1,0-2.1,0-3.1,0
		c-0.2,0-0.5,0.2-0.6,0.4c-0.4,1.1-0.7,2.2-1,3.3C405.5,107.8,405.1,109.3,404.6,110.9z M395.4,125.2c0.8,0,1.5,0,2.2,0
		c0.7,0,1-0.3,1-1c0-0.5,0-1.1,0-1.6c0-0.6-0.4-1-1-1c-0.8,0-1.5,0-2.3,0c-0.2,0-0.7,0.2-0.7,0.4c-0.1,0.5,0.4,0.4,0.7,0.4
		c0.8,0,1.6,0,2.4,0c0,0.7,0,1.3,0,1.9c-0.8,0-1.5,0-2.2,0c-0.5,0-0.9,0.1-0.9,0.7c0,0.9,0,1.9,0,2.9c1.1,0,2.2,0,3.2,0
		c0.3,0,0.8,0.1,0.7-0.4c0-0.1-0.4-0.3-0.7-0.4c-0.8,0-1.6,0-2.4,0C395.4,126.5,395.4,125.9,395.4,125.2z M427.2,124.4
		c-0.8,0-1.5,0-2.3,0c-0.5,0-0.9,0.2-0.9,0.7c0,0.9,0,1.8,0,2.8c1.1,0,2.2,0,3.3,0c0.2,0,0.5-0.3,0.7-0.4c-0.2-0.1-0.5-0.4-0.7-0.4
		c-0.8,0-1.6,0-2.4,0c0-0.7,0-1.3,0-2c0.8,0,1.5,0,2.2,0c0.6,0,0.9-0.3,0.9-0.9c0-0.6,0-1.1,0-1.7c0-0.6-0.3-0.9-0.9-0.9
		c-0.8,0-1.6,0-2.4,0c-0.2,0-0.4,0.3-0.6,0.4c0.2,0.1,0.4,0.4,0.6,0.4c0.8,0,1.7,0,2.5,0C427.2,123.1,427.2,123.7,427.2,124.4z
		 M403.6,127.2c-0.9,0-1.7,0-2.6,0c-0.2,0-0.4,0.2-0.5,0.3c0.2,0.1,0.3,0.4,0.5,0.4c0.9,0,1.8,0.1,2.6,0c0.3,0,0.7-0.4,0.7-0.6
		c0.1-1.7,0.1-3.4,0-5.1c0-0.2-0.5-0.6-0.9-0.6c-0.8-0.1-1.6-0.1-2.4,0c-0.2,0-0.5,0.3-0.7,0.4c0.2,0.1,0.5,0.4,0.7,0.4
		c0.8,0,1.6,0,2.5,0c0,0.5,0,0.9,0,1.2c0,0.5-0.2,0.8-0.7,0.7c-0.4,0-0.7-0.1-1.1,0c-0.2,0-0.4,0.3-0.6,0.4c0.2,0.1,0.4,0.3,0.6,0.4
		c0.1,0,0.1,0,0.2,0c1.6,0,1.6-0.4,1.6,1.7C403.6,126.9,403.6,127,403.6,127.2z M433,127.2c-0.8,0-1.6,0-2.4,0
		c-0.2,0-0.4,0.2-0.7,0.4c0.2,0.1,0.4,0.4,0.7,0.4c0.7,0.1,1.3,0,2,0c1.1,0,1.3-0.2,1.3-1.3c0-0.7-0.2-1.3-0.2-2
		c0-0.7,0.1-1.5,0.2-2.2c0-0.6-0.3-0.9-0.9-0.9c-0.8,0-1.6,0-2.4,0c-0.2,0-0.5,0.3-0.7,0.4c0.2,0.1,0.5,0.4,0.7,0.4
		c0.8,0,1.6,0,2.5,0c0,0.5,0,0.8,0,1.2c0,0.6-0.2,0.8-0.8,0.7c-0.4,0-0.8,0-1.2,0c-0.1,0-0.3,0.2-0.4,0.4c0,0.1,0.2,0.3,0.3,0.3
		c0.1,0.1,0.3,0,0.4,0c1.7,0,1.7,0,1.6,1.7C433.1,126.9,433.1,127,433,127.2z M390.3,127.2c-0.4,0-0.8,0-1.1,0
		c-0.2,0-0.3,0.2-0.5,0.4c0.2,0.1,0.3,0.4,0.5,0.4c0.5,0.1,1,0,1.4,0c2.1,0,2.1,0,2.1-2.1c0-0.1,0-0.2,0-0.2
		c-0.1-0.2-0.3-0.3-0.4-0.5c-0.1,0.2-0.4,0.3-0.4,0.5c-0.1,0.5,0,1,0,1.5c-0.3,0-0.5,0-0.8,0c0-1.8,0-3.6,0-5.5c-0.7,0-1.3,0-1.9,0
		c-0.2,0-0.3,0.3-0.4,0.4c0.2,0.1,0.3,0.3,0.5,0.4c0.3,0.1,0.7,0,1,0C390.3,124.1,390.3,125.5,390.3,127.2z M420.6,127.1
		c0-1.8,0-3.6,0-5.5c-0.7,0-1.3,0-1.9,0c-0.2,0-0.3,0.3-0.5,0.4c0.2,0.1,0.3,0.4,0.5,0.4c0.3,0.1,0.7,0,1.1,0c0,1.6,0,3.1,0,4.7
		c-0.4,0-0.7,0-1,0c-0.2,0-0.3,0.2-0.5,0.4c0.2,0.1,0.3,0.4,0.5,0.4c1,0,2.1,0,3.1,0c0.2,0,0.4-0.3,0.4-0.5c0.1-0.6,0.1-1.2,0-1.8
		c0-0.2-0.3-0.3-0.4-0.5c-0.1,0.2-0.3,0.3-0.3,0.5c0,0.5,0,1,0,1.5C421.1,127.1,420.8,127.1,420.6,127.1z M407.5,125
		c0-1,0-1.9,0-2.9c0-0.2-0.2-0.3-0.4-0.5c-0.1,0.2-0.4,0.3-0.4,0.5c0,1.2,0,2.5,0,3.8c0.8,0,1.6,0,2.4,0c0,0.5,0,1,0,1.4
		c0,0.2,0.2,0.4,0.4,0.6c0.1-0.2,0.3-0.4,0.4-0.6c0.1-0.1,0-0.2,0-0.4c0-0.5-0.2-0.9,0.3-1.3c0.1-0.1,0-0.3-0.1-0.5
		c-0.1-0.2-0.2-0.5-0.2-0.7c0-0.5,0-1,0-1.5c0-0.2-0.3-0.4-0.4-0.6c-0.1,0.2-0.4,0.4-0.4,0.6c0,0.7,0,1.4,0,2.1
		C408.6,125,408.1,125,407.5,125z M437,125c0-0.4,0-0.7,0-0.9c0-0.7,0-1.3,0-2c0-0.2-0.2-0.3-0.4-0.5c-0.1,0.1-0.4,0.3-0.4,0.4
		c0,1.3,0,2.6,0,3.9c0.8,0,1.6,0,2.4,0c0,0.5,0,1,0,1.5c0,0.2,0.2,0.4,0.4,0.5c0.1-0.2,0.3-0.4,0.4-0.6c0.1-0.6-0.2-1.2,0.4-1.7
		c0.1,0,0-0.3-0.1-0.4c-0.1-0.3-0.2-0.5-0.3-0.8c0-0.5,0-1,0-1.5c0-0.2-0.2-0.4-0.3-0.6c-0.1,0.2-0.4,0.4-0.4,0.6
		c-0.1,0.7,0,1.4,0,2.1C438,125,437.6,125,437,125z"/>
	<path class="st1" d="M423.3,90.1c0.5-6.1,1.1-12.2,1.6-18.2c0.1,0,0.1-0.1,0.2-0.1c0.6,0.6,1.2,1.2,1.8,1.8
		c0.8,0.8,1.5,1.5,2.3,2.3c0.3,0.4,0.6,0.4,1.1,0.2c4.8-2.3,9.8-4,15.1-4.8c5.2-0.8,10.3-0.6,15.3,1c6.4,2.1,11.3,6.3,14.9,11.9
		c1.3,2,2.3,4.2,3.5,6.3c0.1,0.2,0.1,0.3,0.2,0.6c-1.5-0.1-3-0.3-4.5-0.4c-3.6-0.3-7.2-0.1-10.7,0.7c-0.5,0.1-0.8,0-1-0.5
		c-1.1-1.9-2.1-3.9-3.4-5.6c-2.6-3.4-6.2-5.2-10.5-5.2c-4.4,0-8.5,1.4-12.6,3.2c1.7,2.3,3.4,4.5,5.2,6.9
		C435.5,90.1,429.4,90.1,423.3,90.1z"/>
	<path class="st1" d="M472.4,93c4.4,0,8.7,0.3,12.9,1.5c1.1,0.3,2.2,0.8,3.3,1.3c1,0.5,1.5,1.2,1.4,2.4c-0.1,1.8-0.1,3.6,0,5.4
		c0,1-0.3,1.7-1.2,2.1c-1.5,0.7-3,1.4-4.6,1.7c-8.2,1.7-16.3,1.7-24.5-0.2c-1.2-0.3-2.4-0.9-3.6-1.4c-1-0.4-1.4-1.2-1.4-2.4
		c0.1-1.9,0-3.7,0-5.6c0-0.8,0.2-1.4,0.9-1.8c1-0.5,2-1.1,3.1-1.4c4-1.2,8.1-1.6,12.2-1.7C471.4,93,471.9,93,472.4,93z M472.9,94.2
		c-4.3,0-8,0.3-11.7,1.2c-1.4,0.3-2.7,0.8-4,1.4c-0.9,0.4-0.9,1,0,1.5c0.7,0.4,1.4,0.8,2.2,0.9c2.4,0.5,4.9,1.1,7.3,1.4
		c5.9,0.7,11.8,0.4,17.6-1c1.1-0.3,2.2-0.7,3.3-1.2c0.8-0.4,0.8-1,0-1.5c-0.8-0.4-1.6-0.8-2.4-1C481,94.6,476.7,94.2,472.9,94.2z"/>
	<path class="st1" d="M454.8,125.8c1.2,1.6,2.9,2.1,4.5,2.5c5.1,1.4,10.4,1.6,15.6,1.4c3.9-0.1,7.8-0.5,11.5-1.8
		c1.3-0.4,2.6-0.9,3.5-2.2c0,2.2,0,4.2,0,6.2c0,0.7-0.6,1.2-1.2,1.6c-1.8,1-3.8,1.6-5.9,1.9c-7.5,1.3-14.9,1.3-22.4-0.4
		c-1.5-0.3-2.8-0.9-4.2-1.5c-1-0.4-1.5-1.3-1.4-2.4C454.9,129.5,454.8,127.7,454.8,125.8z"/>
	<path class="st1" d="M454.8,107.2c1,1.4,2.3,1.9,3.6,2.3c3.7,1.2,7.5,1.6,11.3,1.7c5.1,0.2,10.1,0,15-1.3c0.6-0.1,1.2-0.3,1.7-0.5
		c1.3-0.5,2.6-0.9,3.5-2.3c0,1.8-0.1,3.4,0,5c0.2,1.8-0.7,2.7-2.2,3.4c-2.3,1-4.6,1.5-7.1,1.8c-6.8,0.9-13.5,0.8-20.2-0.7
		c-1.5-0.3-2.8-0.9-4.2-1.5c-1-0.4-1.5-1.2-1.5-2.5C454.9,111,454.8,109.2,454.8,107.2z"/>
	<path class="st1" d="M454.8,116.5c1.2,1.5,2.8,2,4.3,2.5c4.6,1.3,9.3,1.6,14,1.5c4,0,8.1-0.4,12-1.4c1-0.3,1.9-0.6,2.8-1
		c0.7-0.3,1.3-0.9,2-1.3c0,0,0,0.2,0,0.4c0,1.7,0,3.4,0,5.1c0,0.8-0.3,1.5-1,1.9c-1,0.5-1.9,1-3,1.4c-3.9,1.2-7.9,1.6-11.9,1.7
		c-4.9,0.1-9.7-0.1-14.5-1.4c-1.2-0.3-2.3-0.8-3.5-1.3c-1-0.5-1.5-1.2-1.4-2.4c0.1-1.5,0-3.1,0-4.6
		C454.8,117.2,454.8,116.9,454.8,116.5z"/>
	<path class="st1" d="M399.7,108.9c0-0.5,0-0.9,0-1.4c0.4,0.1,0.7,0.2,1,0.3c0.1,0.1,0.1,0.5,0,0.6
		C400.5,108.6,400.2,108.7,399.7,108.9z"/>
	<path class="st1" d="M399.7,105.7c0-0.5,0-0.8,0-1.3c0.4,0.1,0.7,0.2,0.9,0.4c0.1,0.1,0.1,0.4,0,0.5
		C400.4,105.5,400.1,105.6,399.7,105.7z"/>
	<path class="st1" d="M409.1,106c0.1,0.5,0.2,1.1,0.3,1.7c-0.3,0-0.5,0-0.8,0c0.1-0.6,0.2-1.2,0.3-1.8C409,106,409,106,409.1,106z"
		/>
</g>
</svg>
