<?xml version="1.0" encoding="utf-8"?>
<!-- Generator: Adobe Illustrator 26.5.0, SVG Export Plug-In . SVG Version: 6.00 Build 0)  -->
<svg version="1.1" id="Calque_1" xmlns="http://www.w3.org/2000/svg" xmlns:xlink="http://www.w3.org/1999/xlink" x="0px" y="0px"
	 viewBox="0 0 252.92 253.18" style="enable-background:new 0 0 252.92 253.18;" xml:space="preserve">
<style type="text/css">
	.st0{fill:#394998;}
</style>
<g>
	<g>
		<path class="st0" d="M209.89,54.56c2.04-0.31,4.02-0.63,5.99-0.92c2.06-0.3,4.12-0.68,6.2-0.82c2-0.13,3.47,1.09,3.83,3.1
			c0.76,4.18,1.43,8.38,2.11,12.57c0.78,4.79,1.52,9.58,2.31,14.52c2.32,0,4.64,0,6.97,0c1.61,0,3.22-0.02,4.83,0
			c2.52,0.03,4.23,1.7,4.29,4.24c0.04,2.09,0.01,4.19,0.01,6.28c0,35.33,0,70.66,0,106c0,3.5-1.48,4.96-5.01,4.96
			c-19.26,0-38.51,0-57.77,0c-38.59-0.01-77.19-0.01-115.78-0.02c-8.66,0-17.32-0.04-25.98,0.05c-2.81,0.03-4.28-0.49-5.49-4.11
			c-3.28-9.85-6.38-19.76-9.55-29.64c-7.81-24.31-15.61-48.62-23.42-72.93c-0.4-1.26-0.8-2.52-1.21-3.78
			c-0.87-2.66,0.15-4.63,2.85-5.5c10.83-3.48,21.67-6.97,32.5-10.45c18.34-5.89,36.69-11.78,55.03-17.67
			c33.91-10.89,67.82-21.77,101.73-32.65c1.26-0.4,2.53-0.89,3.83-0.99c1.79-0.14,3.19,1.13,3.82,3.09
			c2.1,6.52,4.19,13.05,6.28,19.57C208.77,51.09,209.3,52.73,209.89,54.56z M238.45,171.12c0-0.36,0-0.72,0-1.08
			c0-17.49-0.01-34.97,0.02-52.46c0-1.01-0.15-1.6-1.32-1.54c-0.46,0.02-0.94-0.18-1.4-0.3c-12.21-3.23-19.63-11.07-22.3-23.36
			c-0.25-1.14-0.66-1.28-1.62-1.28c-24.13,0.02-48.26,0.02-72.4,0.02c-22.76,0-45.53,0-68.29,0c-0.43,0-0.87,0-1.37,0
			c-1.07,6.48-3.71,12.11-8.32,16.73c-4.63,4.65-10.25,7.36-16.77,8.4c0,18.33,0,36.64,0,54.88c14.01,2.87,22.36,11.31,25.17,25.17
			c47.84,0,95.61,0,143.25,0C216.01,182.24,224.43,173.91,238.45,171.12z M83.93,82.87c-0.01,0.03-0.01,0.06-0.02,0.09
			c46.02,0,92.05,0,138.15,0c-1.15-7.2-2.29-14.31-3.44-21.53C173.64,68.59,128.78,75.73,83.93,82.87z M195.41,35.95
			C152.44,49.74,109.56,63.5,66.69,77.27c0.02,0.05,0.03,0.1,0.05,0.15c45-7.17,90.01-14.35,135.12-21.54
			C199.68,49.15,197.56,42.6,195.41,35.95z M36.51,90.41c-3.09,0.49-6.06,0.96-9.11,1.44c3,18.91,5.98,37.69,8.96,56.47
			c0.05-0.01,0.09-0.02,0.14-0.03C36.51,129.05,36.51,109.82,36.51,90.41z M27.75,147.43c0.07-0.02,0.15-0.03,0.22-0.05
			c-2.91-18.29-5.81-36.58-8.72-54.92c-2.86,0.93-5.52,1.8-8.22,2.68C16.63,112.65,22.19,130.04,27.75,147.43z M221.36,196.3
			c5.74,0,11.38,0,17,0c0-5.66,0-11.23,0-16.8C230.65,180.54,222.87,187.37,221.36,196.3z M221.38,91.2
			c1.44,8.87,9.17,15.77,17.01,16.84c0-5.59,0-11.17,0-16.84C232.69,91.2,227.04,91.2,221.38,91.2z M44.68,179.52
			c0,5.61,0,11.21,0,16.88c2.86,0,5.63,0,8.4,0c2.8,0,5.6,0,8.42,0C60.23,187.72,52.53,180.63,44.68,179.52z M44.66,108.1
			c9.43-1.61,16.04-9.93,16.75-16.91c-5.57,0-11.14,0-16.75,0C44.66,96.88,44.66,102.49,44.66,108.1z"/>
		<path class="st0" d="M166,142.42c0.01,10.27-1.56,18.8-5.63,26.76c-2.19,4.28-5.05,8.03-9.07,10.78
			c-6.74,4.61-15.11,4.09-21.29-1.24c-5.77-4.98-8.95-11.48-10.93-18.64c-2.14-7.72-2.63-15.58-1.73-23.53
			c0.92-8.05,3.12-15.65,7.78-22.39c1.92-2.77,4.24-5.16,7.1-6.97c6.65-4.2,14.7-3.55,20.68,1.57c5.66,4.84,8.79,11.18,10.84,18.15
			C165.36,132.42,166.09,138.06,166,142.42z M124.91,143.74c0.09,5.86,0.83,11.61,2.83,17.14c1.6,4.43,3.7,8.56,7.42,11.65
			c3.79,3.15,8.23,3.28,12.15,0.34c2.03-1.52,3.59-3.45,4.87-5.61c3.38-5.71,4.95-11.96,5.56-18.51c0.62-6.64,0.09-13.16-1.74-19.56
			c-1.33-4.67-3.28-9.06-6.61-12.71c-4.78-5.23-10.79-5.38-15.6-0.19c-1.59,1.72-2.98,3.72-4.06,5.8
			C126.18,128.85,125.04,136.2,124.91,143.74z"/>
		<path class="st0" d="M193.36,128.97c2.81,0.15,5.66,0.05,8.41,0.5c5.48,0.91,9.74,5.78,10.64,11.26
			c1.11,6.75-3.25,14.08-10.65,15.62c-0.78,0.16-1.59,0.34-2.38,0.34c-4.51-0.03-9.03,0.09-13.52-0.22
			c-6.43-0.45-11.76-6.63-11.98-13.04c-0.22-6.56,4.43-12.98,11.51-14.1c2.59-0.41,5.3-0.07,7.96-0.07
			C193.35,129.16,193.36,129.06,193.36,128.97z M193.27,148.53c1.89,0,3.78,0.01,5.67,0c2.99-0.02,5.4-2.42,5.47-5.44
			c0.08-3.16-2.25-5.85-5.28-5.9c-3.9-0.07-7.81-0.07-11.71,0c-3.05,0.05-5.44,2.74-5.37,5.84c0.07,3.09,2.48,5.49,5.54,5.51
			C189.49,148.54,191.38,148.53,193.27,148.53z"/>
		<path class="st0" d="M88.92,128.97c2.88,0.15,5.78,0.01,8.56,0.51c6.3,1.13,10.95,7.1,10.88,13.52
			c-0.07,6.53-4.92,12.66-11.34,13.38c-4.93,0.55-9.96,0.25-14.94,0.17c-2.64-0.04-5.01-1.11-7.06-2.76
			c-4.53-3.65-6.3-8.44-4.99-14.05c1.29-5.51,4.89-9.13,10.5-10.25C83.27,128.94,86.14,129.12,88.92,128.97z M88.98,148.53
			c1.89,0,3.78,0.01,5.67,0c3.06-0.02,5.48-2.43,5.54-5.51c0.06-3.11-2.33-5.79-5.36-5.84c-3.9-0.07-7.8-0.08-11.7,0
			c-3,0.06-5.5,2.85-5.42,5.85c0.09,3.01,2.59,5.47,5.6,5.5C85.2,148.54,87.09,148.53,88.98,148.53z"/>
		<path class="st0" d="M144.03,127.7c1.51,0.44,2.81,0.82,4.11,1.22c0.3,0.09,0.59,0.25,0.86,0.42c1.08,0.64,0.98,1.99-0.32,4.29
			c-0.56,0.98-1.27,0.69-2.05,0.28c-1.94-1.01-3.99-1.44-6.16-0.88c-1.05,0.27-1.82,0.9-2.06,1.98c-0.27,1.2,0.04,2.27,1.12,2.95
			c0.95,0.59,1.96,1.1,2.96,1.61c1.46,0.75,3.02,1.34,4.4,2.22c3.02,1.92,4.21,4.83,3.78,8.29c-0.44,3.46-2.54,5.72-5.79,6.93
			c-0.34,0.13-0.68,0.23-1.17,0.39c0,1.14-0.01,2.34,0,3.54c0.01,0.9-0.39,1.29-1.31,1.33c-3.48,0.14-3.48,0.16-3.48-3.3
			c0-0.4,0-0.79,0-1.07c-1.73-0.53-3.37-0.92-4.91-1.54c-2.14-0.86-2.19-1.11-1.38-3.22c0.98-2.54,0.97-2.51,3.38-1.47
			c2.07,0.89,4.21,1.38,6.45,0.74c2.74-0.79,3.44-3.75,1.28-5.61c-0.92-0.79-2.11-1.29-3.2-1.87c-1.45-0.77-3.03-1.35-4.38-2.25
			c-5.34-3.56-4.77-10.89,1.02-13.69c0.68-0.33,1.4-0.57,2.16-0.87c0-1.1,0.03-2.18-0.01-3.27c-0.03-0.85,0.26-1.27,1.17-1.26
			c4.12,0.03,3.49-0.35,3.55,3.29C144.03,127.17,144.03,127.49,144.03,127.7z"/>
	</g>
</g>
</svg>
