<?xml version="1.0" encoding="utf-8"?>
<!-- Generator: Adobe Illustrator 26.5.0, SVG Export Plug-In . SVG Version: 6.00 Build 0)  -->
<svg version="1.1" id="Calque_1" xmlns="http://www.w3.org/2000/svg" xmlns:xlink="http://www.w3.org/1999/xlink" x="0px" y="0px"
	 viewBox="0 0 393.75 389.58" style="enable-background:new 0 0 393.75 389.58;" xml:space="preserve">
<style type="text/css">
	.st0{fill:#394A99;}
</style>
<g>
	<path class="st0" d="M66.92,224.95c6.89,0,13.77,0,21.34,0c0,10.99,0.66,21.63-0.15,32.16c-1.29,16.61,11.21,31.33,30.24,30.02
		c7.04-0.49,14.14-0.08,21.62-0.08c0,7.12,0,13.74,0,20.97c-13.39-0.21-26.98,1.98-39.94-2.44c-18.11-6.18-28.91-19.1-32.12-38.13
		c-0.18-1.08-0.66-2.11-0.99-3.16C66.92,251.18,66.92,238.06,66.92,224.95z"/>
	<path class="st0" d="M139.99,55.21c0,6.86,0,13.72,0,21.19c-7.84,0-15.47-0.03-23.09,0.01c-18.04,0.07-28.6,10.61-28.62,28.53
		c-0.01,9.71,0,19.41,0,30.2c-7.42-0.43-14.39-0.83-21.35-1.24c0-11.24,0-22.48,0-33.72c0.32-1.23,0.79-2.45,0.95-3.7
		c1.44-11.19,6.48-20.46,14.52-28.3c7.35-7.17,16.54-10.41,26.12-12.96C119,55.21,129.5,55.21,139.99,55.21z"/>
	<path class="st0" d="M319.84,262.04c-0.56,3.08-0.96,6.2-1.71,9.23c-5.35,21.5-22.39,35.59-44.59,36.75
		c-5.76,0.3-11.55,0.05-17.8,0.05c0-6.88,0-13.48,0-21.02c4.57,0,9.16-0.24,13.73,0.04c18.41,1.12,30.27-14.15,29.17-29.42
		c-0.76-10.59-0.15-21.28-0.15-32.73c7.3,0,14.33,0,21.35,0C319.84,237.31,319.84,249.68,319.84,262.04z"/>
	<path class="st0" d="M319.84,135.02c-6.86,0-13.73,0-21.32,0c0-10.18-0.62-19.69,0.14-29.08c1.26-15.62-10.68-31.04-29.91-29.69
		c-4.23,0.3-8.5,0.04-12.99,0.04c0-7.43,0-14.25,0-21.08c7.49,0,14.99,0,22.48,0c0.82,0.34,1.61,0.82,2.47,1
		c18.05,3.76,30.13,14.41,36.4,31.65c1.18,3.25,1.83,6.7,2.72,10.06C319.84,110.29,319.84,122.65,319.84,135.02z"/>
	<path class="st0" d="M122.44,110.54c17.18,0,33.97,0,51.07,0c0,17.02,0,33.79,0,51.01c-16.82,0-33.75,0-51.07,0
		C122.44,144.81,122.44,127.89,122.44,110.54z M134.76,149.16c9.17,0,17.81,0,26.37,0c0-8.94,0-17.45,0-26.01
		c-8.94,0-17.56,0-26.37,0C134.76,131.95,134.76,140.3,134.76,149.16z"/>
	<path class="st0" d="M264.26,161.77c-17.07,0-33.85,0-50.98,0c0-17.11,0-34.01,0-51.19c16.98,0,33.76,0,50.98,0
		C264.26,127.41,264.26,144.31,264.26,161.77z M225.69,149.1c9.12,0,17.76,0,26.22,0c0-9,0-17.51,0-26.12c-8.91,0-17.42,0-26.22,0
		C225.69,131.77,225.69,140.29,225.69,149.1z"/>
	<path class="st0" d="M173.56,201.69c0,17.03,0,33.66,0,50.71c-17.02,0-33.93,0-51.2,0c0-16.78,0-33.53,0-50.71
		C139.2,201.69,156.11,201.69,173.56,201.69z M134.64,240.08c9.19,0,17.71,0,26.35,0c0-8.89,0-17.4,0-25.95c-9,0-17.67,0-26.35,0
		C134.64,222.94,134.64,231.31,134.64,240.08z"/>
	<path class="st0" d="M199.49,174.4c4.27,0.33,8.54,0.65,13.27,1.01c0,3.83,0,7.69,0,11.99c4.27,0,8.08,0,12.6,0
		c0-3.82,0-7.82,0-12.09c4.73,0,8.77,0,13.17,0c0,4,0,7.85,0,12.43c-3.89,0-7.88,0-12.37,0c0,4.57,0,8.41,0,12.89
		c-4.53,0-8.56,0-13.11,0c0,8.77,0,16.92,0,25.52c-4.4,0-8.26,0-12.89,0c0,8.72,0,17.01,0,25.68c-4.59,0-8.42,0-12.68,0
		c0-12.4,0-24.83,0-37.85c3.87,0,7.7,0,11.84,0c0-4.6,0-8.61,0-12.93c-4-0.19-7.83-0.38-12-0.58c0-4.52,0-8.62,0-12.71l-0.2,0.18
		c3.99,0,7.99,0,12.51,0c0-4.93,0-9.29,0-13.64L199.49,174.4z"/>
	<path class="st0" d="M213.27,251.81c0-8.41,0-16.2,0-24.58c4.02,0,7.85,0,12.17,0c0-4.41,0-8.26,0-12.64
		c4.52-0.2,8.55-0.38,13.2-0.59c0-8.26,0-16.39,0-24.92c4.6,0,8.59,0,13.14,0c0.18,3.83,0.35,7.66,0.55,12.03c4.04,0,7.87,0,12.04,0
		c0,4.37,0,8.19,0,12.67c-3.81,0-7.63,0-12.06,0c0,4.62,0,8.63,0,13.28c-8.9,0-17.19,0-25.8,0c0,4.48,0,8.3,0,12.86
		c4.08,0,8.07,0,12.39,0c0,4.35,0,7.97,0,11.9C230.3,251.81,221.99,251.81,213.27,251.81z"/>
	<path class="st0" d="M187.29,174.37c0-12.46,0-24.92,0-37.8c3.98,0,7.94,0,12.2,0c0,12.67,0,25.25,0,37.84l0.13-0.11
		c-4.16-0.01-8.32-0.01-12.48-0.02L187.29,174.37z"/>
	<path class="st0" d="M251.78,252.69c0-4.18,0-7.88,0-12.12c4.25,0,8.39,0,12.76,0c0,4.02,0,7.89,0,12.12
		C260.38,252.69,256.36,252.69,251.78,252.69z"/>
	<path class="st0" d="M187.31,187.75c-4.26,0-8.52,0-13.18,0c0-4.11,0-8.07,0-12.3c4.42-0.36,8.79-0.72,13.16-1.08l-0.15-0.09
		c-0.01,4.55-0.02,9.11-0.02,13.66L187.31,187.75z"/>
	<path class="st0" d="M187.33,122.83c0-4.03,0-7.89,0-12.14c4.01,0,7.98,0,12.26,0c0,4,0,7.84,0,12.14
		C195.52,122.83,191.56,122.83,187.33,122.83z"/>
	<path class="st0" d="M122.3,187.5c0-4.07,0-7.89,0-12.1c4.33,0,8.46,0,12.87,0c0,4.12,0,7.94,0,12.1
		C131,187.5,126.98,187.5,122.3,187.5z"/>
	<path class="st0" d="M160.98,187.59c-4.5,0-8.52,0-12.83,0c0-4.07,0-7.9,0-12.15c4.24,0,8.38,0,12.83,0
		C160.98,179.44,160.98,183.27,160.98,187.59z"/>
	<path class="st0" d="M264.38,187.62c-4.44,0-8.46,0-12.77,0c0-4.04,0-7.86,0-12.15c4.18,0,8.31,0,12.77,0
		C264.38,179.4,264.38,183.22,264.38,187.62z"/>
</g>
</svg>
