<?xml version="1.0" encoding="UTF-8"?>
<svg id="Calque_1" data-name="Calque 1" xmlns="http://www.w3.org/2000/svg" viewBox="0 0 465.1 426.4">
  <defs>
    <style>
      .cls-1 {
        fill: #fff;
      }
    </style>
  </defs>
  <path class="cls-1" d="M213.06,194.14v-34.98c.02-16.13,7.06-23.13,23.3-23.15,17.15-.01,34.3-.05,51.45,.01,14.08,.05,21.8,7.7,21.91,21.68,.09,11.87,.02,23.73,.02,36.43h7.54c41.97,0,83.93-.02,125.9,.01,13.31,.01,22.05,7.96,21.92,19.72-.11,9.93-7.72,18.1-17.65,18.87-2.21,.17-4.44,.14-6.65,.14-138.81,0-277.63,.01-416.44-.03-3.61,0-7.36,.04-10.79-.88C5.22,229.71-.29,221.52,.01,212.7c.29-8.44,6.29-15.89,14.67-17.78,2.91-.65,5.99-.77,9-.77,60.53-.04,121.06-.03,181.59-.03h7.8v.02Zm39.15-19.1v18.41h18.31v-18.41h-18.31Z"/>
  <path class="cls-1" d="M350.62,426.35c-12.9,0-25.8,.04-38.71-.01-12.75-.05-21.43-8.07-21.33-19.59,.09-11.29,8.66-19.11,21.12-19.13,24.8-.04,49.59,.01,74.39-.02,13.64-.02,20.79-7.24,20.81-20.94,.02-18.15-.03-36.29,.02-54.44,.03-12.81,7.99-21.54,19.48-21.48,11.4,.06,19.23,8.85,19.25,21.72,.03,18.55,.08,37.1,0,55.65-.16,33.31-24.74,57.94-58.12,58.23-12.3,.11-24.59,.02-36.89,.02h-.02Z"/>
  <path class="cls-1" d="M113.52,425.29c-15.51,0-31.19,1.49-46.48-.33-26.77-3.19-47.11-27.38-47.54-54.46-.32-19.97-.17-39.95-.07-59.92,.06-11.43,8.32-19.82,19.17-19.88,10.82-.05,19.35,8.32,19.47,19.68,.19,18.56,.04,37.12,.07,55.69,.02,14.2,7.37,21.47,21.7,21.48,24.21,.02,48.42-.01,72.62,.01,12.93,.01,21.75,7.77,21.87,19.14,.12,11.57-8.86,19.56-22.09,19.59-12.91,.03-25.82,0-38.73,0v-1Z"/>
  <path class="cls-1" d="M348.88,38.83c-12.5,0-25.01,.05-37.51-.02-11.91-.06-20.56-8.07-20.71-19.03-.16-11.33,8.43-19.64,20.65-19.68,25.41-.08,50.82-.19,76.23,.02,32.5,.27,57.46,25,57.95,57.43,.29,19.16,.14,38.32,.03,57.48-.07,12.17-8.52,20.86-19.76,20.66-10.94-.19-18.89-8.83-18.93-20.78-.07-18.15,0-36.31-.03-54.46-.03-14.21-7.43-21.59-21.63-21.62-12.1-.03-24.2,0-36.3,0h.01Z"/>
  <path class="cls-1" d="M114.52,.08c12.91,0,25.82-.05,38.72,.02,12.3,.06,21.07,8.18,21.09,19.35,.02,11.18-8.78,19.35-21.04,19.37-24.4,.05-48.81-.01-73.21,.03-14.23,.02-21.92,7.81-21.95,22.15-.03,18.36,.09,36.71-.06,55.07-.08,9.07-5.38,16.04-13.61,18.69-7.93,2.56-16.66-.04-21.29-7.23-2.07-3.22-3.55-7.43-3.61-11.21-.34-19.96-.41-39.94-.05-59.91C20.05,26.32,45.02,1.17,75.19,.24c13.1-.41,26.22-.07,39.33-.07V.09h0Z"/>
  <path class="cls-1" d="M145.88,77.54c9.27,0,18.54-.07,27.8,.02,11.61,.12,19.88,8.08,20,19.69,.19,18.94,.17,37.89,0,56.83-.1,10.94-7.24,19.29-18.13,19.61-20.12,.58-40.29,.58-60.42-.03-10.59-.32-17.75-8.52-17.9-19.22-.26-19.14-.29-38.29,0-57.43,.17-11.71,8.44-19.36,20.23-19.45,9.47-.07,18.94-.02,28.41-.01h0Zm-9.7,38.96v18.3h18.36v-18.3h-18.36Z"/>
  <path class="cls-1" d="M319.19,251.82c9.48,0,18.95-.09,28.43,.02,11.47,.14,19.47,7.8,19.61,19.31,.23,19.15,.22,38.32,0,57.47-.12,11.35-7.42,19.2-18.85,19.46-19.55,.44-39.12,.45-58.66-.01-11.36-.27-18.6-8.24-18.71-19.6-.18-18.95-.18-37.91,0-56.87,.11-12.22,7.97-19.68,20.35-19.77,9.27-.07,18.55-.01,27.82-.01h.01Zm-9.19,57.22h18.04v-18.11h-18.04v18.11Z"/>
  <path class="cls-1" d="M145.65,347.85c-9.28,0-18.56,.1-27.84-.03-11.92-.16-19.8-7.81-19.91-19.65-.18-18.76-.18-37.53,0-56.29,.11-12.15,8.07-19.82,20.36-19.89,18.36-.1,36.71-.11,55.07,0,12.3,.08,20.31,8.21,20.38,20.65,.11,18.16,.1,36.32,0,54.47-.07,12.84-7.93,20.6-20.84,20.71-9.08,.08-18.15,.02-27.23,.01v.02Zm9.02-39.05v-17.75h-17.7v17.75h17.7Z"/>
  <path class="cls-1" d="M329.38,116.34h-81.32c-5.24,0-10.49,.1-15.73-.03-11.04-.27-19.26-8.43-19.36-19.08-.11-11.02,8.05-19.53,19.43-19.58,33.68-.15,67.37-.06,101.05-.06,5.24,0,10.49-.14,15.73,.06,10.09,.4,18.38,7.88,18.73,17.87,.48,13.7,.47,27.44,.02,41.14-.34,10.44-9.59,18.52-19.7,18.22-10.3-.31-18.54-8.59-18.83-19.14-.17-6.21-.03-12.43-.03-19.41h.01Z"/>
  <path class="cls-1" d="M252.21,301.61c0,9.48,.12,18.95-.04,28.43-.19,11.53-8.29,19.91-19.05,20.01-10.74,.1-19.37-8.17-19.54-19.64-.29-19.15-.29-38.31,0-57.46,.17-11.52,8.7-19.76,19.47-19.71,10.74,.05,18.83,8.47,19.16,19.94,.01,.4,.01,.81,.01,1.21v27.22h-.01Z"/>
</svg>