<?xml version="1.0" encoding="UTF-8"?>
<svg id="Calque_1" data-name="Calque 1" xmlns="http://www.w3.org/2000/svg" viewBox="0 0 303.18 444.14">
  <defs>
    <style>
      .cls-1 {
        fill: #fff;
      }
    </style>
  </defs>
  <path class="cls-1" d="M.02,222.21C.02,164.44-.04,106.66,.05,48.89,.09,23.81,16.36,4.43,41.18,.98c9.88-1.37,20.16-1.17,30.12-.25,13.35,1.24,22.87,11.33,25.64,25.21,.71,3.56,1.23,7.16,2.17,10.66,3.51,13.09,15.38,22.76,28.95,23.02,15.68,.3,31.37,.33,47.05,0,14.85-.31,26.73-11.11,29.83-26.36,.69-3.39,1.21-6.82,2.05-10.18,3.39-13.49,14.87-22.69,28.81-22.73,9.39-.02,18.91-.39,28.14,.96,21.74,3.16,38.12,22.13,39.15,44.1,.07,1.48,.08,2.97,.08,4.46,0,114.89,.02,229.78,0,344.66,0,23.59-13.61,42.1-35.35,47.86-4.41,1.17-9.11,1.65-13.68,1.66-68.35,.1-136.7,.11-205.05,.05-28.47-.03-49.01-20.57-49.04-49.05-.07-57.61-.02-115.22-.02-172.83h-.01Zm121.23,85.36h43.36c17.66,0,35.32,.08,52.98-.05,8.97-.07,15.03-6.63,14.49-15.22-.52-8.21-6.7-13.27-16.59-13.28-29.55-.06-59.09-.02-88.64-.02h-6.24c.63-1.35,.88-1.92,1.16-2.47,3.85-7.46,2.69-14.72-3.07-19.17-5.92-4.58-13.7-3.85-19.69,2.04-7.88,7.76-15.71,15.57-23.45,23.46-5.27,5.36-6.63,13.31-1.98,18.4,9,9.85,18.52,19.27,28.3,28.35,4.18,3.88,9.78,3.67,14.87,.94,4.94-2.65,7.62-6.98,7.22-12.55-.24-3.31-1.67-6.53-2.73-10.41v-.02Zm61.34-82.84c-.68,1.41-.99,2.12-1.35,2.81-3.79,7.21-2.43,14.65,3.49,19.04,5.87,4.35,13.51,3.64,19.3-2.03,7.89-7.74,15.73-15.55,23.46-23.45,5.97-6.1,6.59-14.07,1.03-20.01-8.35-8.9-17.02-17.52-25.86-25.94-5.14-4.9-12.71-4.83-18.17-.59-5.41,4.19-6.97,11.46-3.81,17.81,.56,1.12,1.19,2.22,2.08,3.88H89.67c-1.98,0-3.97-.04-5.94,.15-6.94,.65-12.19,6.13-12.61,13.02-.44,7.29,4.06,13.42,11.07,14.82,2.08,.42,4.26,.46,6.4,.46,29.21,.03,58.43,.02,87.64,.02h6.35Z"/>
  <path class="cls-1" d="M111.55,.41h78.77c-7.62,3.45-9.83,10.09-11.22,17.62-1.47,7.93-7.73,12.83-15.81,13.03-7.41,.18-14.83,.14-22.25,.04-9.48-.12-15.26-5.01-17.25-14.4-2.01-9.47-3.74-11.92-12.24-16.29h0Z"/>
</svg>