<?xml version="1.0" encoding="UTF-8"?>
<svg id="Calque_1" data-name="Calque 1" xmlns="http://www.w3.org/2000/svg" viewBox="0 0 167.92 168.77">
  <defs>
    <style>
      .cls-1 {
        fill: #189d0e;
      }
    </style>
  </defs>
  <path class="cls-1" d="M0,168.77c3.72-13.54,7.31-25.92,10.4-38.42,.67-2.72,.41-6.3-.83-8.78C-18.41,65.85,22.4-.46,84.64,0c45.24,.34,81.44,35.68,83.21,80.34,1.81,45.63-32.32,80.84-71.6,86.13-16.94,2.28-32.94-.28-48.41-7.38-2.16-.99-5.11-1.32-7.41-.76-13.15,3.18-26.22,6.73-40.43,10.44Zm19.97-19.8c8.26-2.11,15.42-4.15,22.69-5.69,2.15-.46,4.93-.14,6.85,.89,14.34,7.68,29.37,10.77,45.58,8.2,33.85-5.36,58.68-34.24,58.8-68.65,.12-34.09-24.95-63.88-58.72-68.68-28.49-4.05-51.95,5.84-68.17,29.56-16.37,23.93-16.5,49.35-2.42,74.65,1.79,3.22,2.13,5.86,1.06,9.26-2.01,6.44-3.63,13.01-5.67,20.46Z"/>
  <path class="cls-1" d="M105.98,123.81c-9.33-.45-17.79-3.96-25.67-8.53-15.28-8.86-26.84-21.56-35.01-37.16-5.8-11.09-4.28-22.1,3.37-29.93,5.47-5.59,12.69-4.25,15.68,2.92,1.34,3.21,2.29,6.66,4.1,9.58,3.07,4.94,1.67,8.97-2.07,12.35-3.7,3.36-3.03,6.14-.43,9.8,6.5,9.15,14.52,16.23,24.86,20.77,3.36,1.47,5.33,.96,7.67-1.78,7.49-8.76,7.59-8.68,17.9-3.55,1.19,.59,2.37,1.19,3.56,1.77,7.81,3.77,8.88,11.41,2.31,17.49-4.55,4.21-9.86,6.69-16.27,6.27Z"/>
</svg>